  0
SECTION
  2
HEADER
  9
$ACADVER
  1
AC1009
  9
$INSBASE
 10
0.0
 20
0.0
 30
0.0
  9
$EXTMIN
 10
20.0
 20
20.0
 30
0.0
  9
$EXTMAX
 10
110.0
 20
70.0
 30
0.0
  9
$LIMMIN
 10
0.0
 20
0.0
  9
$LIMMAX
 10
420.0
 20
297.0
  9
$ORTHOMODE
 70
     0
  9
$REGENMODE
 70
     1
  9
$FILLMODE
 70
     1
  9
$QTEXTMODE
 70
     0
  9
$MIRRTEXT
 70
     1
  9
$DRAGMODE
 70
     2
  9
$LTSCALE
 40
1.0
  9
$OSMODE
 70
    37
  9
$ATTMODE
 70
     1
  9
$TEXTSIZE
 40
2.5
  9
$TRACEWID
 40
1.0
  9
$TEXTSTYLE
  7
STANDARD
  9
$CLAYER
  8
0
  9
$CELTYPE
  6
BYLAYER
  9
$CECOLOR
 62
   256
  9
$DIMSCALE
 40
1.0
  9
$DIMASZ
 40
2.5
  9
$DIMEXO
 40
0.625
  9
$DIMDLI
 40
3.75
  9
$DIMRND
 40
0.0
  9
$DIMDLE
 40
0.0
  9
$DIMEXE
 40
1.25
  9
$DIMTP
 40
0.0
  9
$DIMTM
 40
0.0
  9
$DIMTXT
 40
2.5
  9
$DIMCEN
 40
2.5
  9
$DIMTSZ
 40
0.0
  9
$DIMTOL
 70
     0
  9
$DIMLIM
 70
     0
  9
$DIMTIH
 70
     0
  9
$DIMTOH
 70
     0
  9
$DIMSE1
 70
     0
  9
$DIMSE2
 70
     0
  9
$DIMTAD
 70
     1
  9
$DIMZIN
 70
     8
  9
$DIMBLK
  1

  9
$DIMASO
 70
     1
  9
$DIMSHO
 70
     1
  9
$DIMPOST
  1

  9
$DIMAPOST
  1

  9
$DIMALT
 70
     0
  9
$DIMALTD
 70
     3
  9
$DIMALTF
 40
0.0394
  9
$DIMLFAC
 40
1.0
  9
$DIMTOFL
 70
     1
  9
$DIMTVP
 40
0.0
  9
$DIMTIX
 70
     0
  9
$DIMSOXD
 70
     0
  9
$DIMSAH
 70
     0
  9
$DIMBLK1
  1

  9
$DIMBLK2
  1

  9
$DIMSTYLE
  2
ISO-25
  9
$DIMCLRD
 70
     0
  9
$DIMCLRE
 70
     0
  9
$DIMCLRT
 70
     0
  9
$DIMTFAC
 40
1.0
  9
$DIMGAP
 40
0.625
  9
$LUNITS
 70
     2
  9
$LUPREC
 70
     4
  9
$SKETCHINC
 40
1.0
  9
$FILLETRAD
 40
10.0
  9
$AUNITS
 70
     0
  9
$AUPREC
 70
     0
  9
$MENU
  1
.
  9
$ELEVATION
 40
0.0
  9
$PELEVATION
 40
0.0
  9
$THICKNESS
 40
0.0
  9
$LIMCHECK
 70
     0
  9
$BLIPMODE
 70
     0
  9
$CHAMFERA
 40
0.0
  9
$CHAMFERB
 40
0.0
  9
$SKPOLY
 70
     0
  9
$TDCREATE
 40
2457465.7251088428
  9
$TDUPDATE
 40
2457466.4347068751
  9
$TDINDWG
 40
0.0075156481
  9
$TDUSRTIMER
 40
0.0075143056
  9
$USRTIMER
 70
     1
  9
$ANGBASE
 50
0.0
  9
$ANGDIR
 70
     0
  9
$PDMODE
 70
     0
  9
$PDSIZE
 40
0.0
  9
$PLINEWID
 40
0.0
  9
$COORDS
 70
     1
  9
$SPLFRAME
 70
     0
  9
$SPLINETYPE
 70
     6
  9
$SPLINESEGS
 70
     8
  9
$ATTDIA
 70
     0
  9
$ATTREQ
 70
     1
  9
$HANDLING
 70
     1
  9
$HANDSEED
  5
4A9
  9
$SURFTAB1
 70
     6
  9
$SURFTAB2
 70
     6
  9
$SURFTYPE
 70
     6
  9
$SURFU
 70
     6
  9
$SURFV
 70
     6
  9
$UCSNAME
  2

  9
$UCSORG
 10
0.0
 20
0.0
 30
0.0
  9
$UCSXDIR
 10
1.0
 20
0.0
 30
0.0
  9
$UCSYDIR
 10
0.0
 20
1.0
 30
0.0
  9
$PUCSNAME
  2

  9
$PUCSORG
 10
0.0
 20
0.0
 30
0.0
  9
$PUCSXDIR
 10
1.0
 20
0.0
 30
0.0
  9
$PUCSYDIR
 10
0.0
 20
1.0
 30
0.0
  9
$USERI1
 70
     0
  9
$USERI2
 70
     0
  9
$USERI3
 70
     0
  9
$USERI4
 70
     0
  9
$USERI5
 70
     0
  9
$USERR1
 40
0.0
  9
$USERR2
 40
0.0
  9
$USERR3
 40
0.0
  9
$USERR4
 40
0.0
  9
$USERR5
 40
0.0
  9
$WORLDVIEW
 70
     1
  9
$SHADEDGE
 70
     3
  9
$SHADEDIF
 70
    70
  9
$TILEMODE
 70
     1
  9
$MAXACTVP
 70
    64
  9
$PLIMCHECK
 70
     0
  9
$PEXTMIN
 10
1.0000000000000000E+020
 20
1.0000000000000000E+020
 30
1.0000000000000000E+020
  9
$PEXTMAX
 10
-1.0000000000000000E+020
 20
-1.0000000000000000E+020
 30
-1.0000000000000000E+020
  9
$PLIMMIN
 10
0.0
 20
0.0
  9
$PLIMMAX
 10
420.0
 20
297.0
  9
$UNITMODE
 70
     0
  9
$VISRETAIN
 70
     1
  9
$PLINEGEN
 70
     0
  9
$PSLTSCALE
 70
     1
  0
ENDSEC
  0
SECTION
  2
TABLES
  0
TABLE
  2
VPORT
 70
     1
  0
VPORT
  2
*ACTIVE
 70
     0
 10
0.0
 20
0.0
 11
1.0
 21
1.0
 12
33.567743833598541
 22
52.814592318633707
 13
0.0
 23
0.0
 14
10.0
 24
10.0
 15
10.0
 25
10.0
 16
0.0
 26
0.0
 36
1.0
 17
0.0
 27
0.0
 37
0.0
 40
72.272878290110313
 41
1.6366492146596849
 42
50.0
 43
0.0
 44
0.0
 50
0.0
 51
0.0
 71
     0
 72
   100
 73
     1
 74
     3
 75
     0
 76
     0
 77
     0
 78
     0
  0
ENDTAB
  0
TABLE
  2
LTYPE
 70
     2
  0
LTYPE
  2
CONTINUOUS
 70
     0
  3
Solid line
 72
    65
 73
     0
 40
0.0
  0
LTYPE
  2
K5LT_BASIC
 70
     0
  3

 72
    65
 73
     0
 40
0.0
  0
ENDTAB
  0
TABLE
  2
LAYER
 70
     2
  0
LAYER
  2
0
 70
     0
 62
     7
  6
CONTINUOUS
  0
LAYER
  2
—»—“≈ÃÕ€…_—ÀŒ…
 70
     0
 62
     7
  6
CONTINUOUS
  0
ENDTAB
  0
TABLE
  2
STYLE
 70
     3
  0
STYLE
  2
STANDARD
 70
     0
 40
0.0
 41
1.0
 50
0.0
 71
     0
 42
2.5
  3
txt
  4

  0
STYLE
  2
ANNOTATIVE
 70
     0
 40
0.0
 41
1.0
 50
0.0
 71
     0
 42
0.2
  3
txt
  4

  0
STYLE
  2
KTEXTSTYLE
 70
     0
 40
5.0
 41
0.9599999999999999
 50
0.0
 71
     0
 42
2.5
  3
txt
  4

  0
ENDTAB
  0
TABLE
  2
VIEW
 70
     0
  0
ENDTAB
  0
TABLE
  2
UCS
 70
     0
  0
ENDTAB
  0
TABLE
  2
APPID
 70
     4
  0
APPID
  2
ACAD
 70
     0
  0
APPID
  2
ACADANNOTATIVE
 70
     0
  0
APPID
  2
KOMPAS
 70
     0
  0
APPID
  2
ACAD_MLEADERVER
 70
     0
  0
ENDTAB
  0
TABLE
  2
DIMSTYLE
 70
     3
  0
DIMSTYLE
  2
STANDARD
 70
     0
  3

  4

  5

  6

  7

 40
1.0
 41
0.18
 42
0.0625
 43
0.38
 44
0.18
 45
0.0
 46
0.0
 47
0.0
 48
0.0
140
0.18
141
0.09
142
0.0
143
25.399999999999999
144
1.0
145
0.0
146
1.0
147
0.09
 71
     0
 72
     0
 73
     1
 74
     1
 75
     0
 76
     0
 77
     0
 78
     0
170
     0
171
     2
172
     0
173
     0
174
     0
175
     0
176
     0
177
     0
178
     0
  0
DIMSTYLE
  2
ANNOTATIVE
 70
     0
  3

  4

  5

  6

  7

 40
1.0
 41
0.18
 42
0.0625
 43
0.38
 44
0.18
 45
0.0
 46
0.0
 47
0.0
 48
0.0
140
0.18
141
0.09
142
0.0
143
25.399999999999999
144
1.0
145
0.0
146
1.0
147
0.09
 71
     0
 72
     0
 73
     1
 74
     1
 75
     0
 76
     0
 77
     0
 78
     0
170
     0
171
     2
172
     0
173
     0
174
     0
175
     0
176
     0
177
     0
178
     0
  0
DIMSTYLE
  2
ISO-25
 70
     0
  3

  4

  5

  6

  7

 40
1.0
 41
2.5
 42
0.625
 43
3.75
 44
1.25
 45
0.0
 46
0.0
 47
0.0
 48
0.0
140
2.5
141
2.5
142
0.0
143
0.0394
144
1.0
145
0.0
146
1.0
147
0.625
 71
     0
 72
     0
 73
     0
 74
     0
 75
     0
 76
     0
 77
     1
 78
     8
170
     0
171
     3
172
     1
173
     0
174
     0
175
     0
176
     0
177
     0
178
     0
  0
ENDTAB
  0
ENDSEC
  0
SECTION
  2
BLOCKS
  0
BLOCK
  8
0
  2
$MODEL_SPACE
 70
     0
 10
0.0
 20
0.0
 30
0.0
  3
$MODEL_SPACE
  1

  0
ENDBLK
  5
434
  8
0
  0
BLOCK
 67
     1
  8
0
  2
$PAPER_SPACE
 70
     0
 10
0.0
 20
0.0
 30
0.0
  3
$PAPER_SPACE
  1

  0
ENDBLK
  5
430
 67
     1
  8
0
  0
BLOCK
  8
0
  2
U0
 70
     0
 10
0.0
 20
0.0
 30
0.0
  3
U0
  1
U0
  0
LINE
  5
6F
  8
0
  6
K5LT_BASIC
 10
20.0
 20
20.0
 30
0.0
 11
110.0
 21
20.0
 31
0.0
  0
LINE
  5
70
  8
0
  6
K5LT_BASIC
 10
110.0
 20
20.0
 30
0.0
 11
110.0
 21
70.0
 31
0.0
  0
LINE
  5
71
  8
0
  6
K5LT_BASIC
 10
110.0
 20
70.0
 30
0.0
 11
20.0
 21
70.0
 31
0.0
  0
LINE
  5
72
  8
0
  6
K5LT_BASIC
 10
20.0
 20
70.0
 30
0.0
 11
20.0
 21
20.0
 31
0.0
  0
ENDBLK
  5
74
  8
0
  0
BLOCK
  8
0
  2
U1
 70
     0
 10
0.0
 20
0.0
 30
0.0
  3
U1
  1
U1
  0
LINE
  5
79
  8
0
  6
K5LT_BASIC
 10
47.75
 20
65.483299999999986
 30
0.0
 11
49.25
 21
65.483299999999986
 31
0.0
  0
LINE
  5
7A
  8
0
  6
K5LT_BASIC
 10
49.25
 20
65.483299999999986
 30
0.0
 11
49.25
 21
67.983299999999986
 31
0.0
  0
LINE
  5
7B
  8
0
  6
K5LT_BASIC
 10
49.25
 20
67.983299999999986
 30
0.0
 11
47.75
 21
67.983299999999986
 31
0.0
  0
LINE
  5
7C
  8
0
  6
K5LT_BASIC
 10
47.75
 20
67.983299999999986
 30
0.0
 11
47.75
 21
65.483299999999986
 31
0.0
  0
ENDBLK
  5
7E
  8
0
  0
BLOCK
  8
0
  2
U2
 70
     0
 10
0.0
 20
0.0
 30
0.0
  3
U2
  1
U2
  0
LINE
  5
81
  8
0
  6
K5LT_BASIC
 10
68.779099999999985
 20
55.842100000000002
 30
0.0
 11
68.0291
 21
57.141199999999998
 31
0.0
  0
LINE
  5
82
  8
0
  6
K5LT_BASIC
 10
68.0291
 20
57.141199999999998
 30
0.0
 11
65.864099999999993
 21
55.891199999999998
 31
0.0
  0
LINE
  5
83
  8
0
  6
K5LT_BASIC
 10
65.864099999999993
 20
55.891199999999998
 30
0.0
 11
66.614099999999993
 21
54.592100000000002
 31
0.0
  0
LINE
  5
84
  8
0
  6
K5LT_BASIC
 10
66.614099999999993
 20
54.592100000000002
 30
0.0
 11
68.779099999999985
 21
55.842100000000002
 31
0.0
  0
ENDBLK
  5
86
  8
0
  0
BLOCK
  8
0
  2
U3
 70
     0
 10
0.0
 20
0.0
 30
0.0
  3
U3
  1
U3
  0
LINE
  5
89
  8
0
  6
K5LT_BASIC
 10
60.641199999999991
 20
64.5291
 30
0.0
 11
59.342100000000002
 21
65.2791
 31
0.0
  0
LINE
  5
8A
  8
0
  6
K5LT_BASIC
 10
59.342100000000002
 20
65.2791
 30
0.0
 11
58.092100000000002
 21
63.114100000000001
 31
0.0
  0
LINE
  5
8B
  8
0
  6
K5LT_BASIC
 10
58.092100000000002
 20
63.114100000000001
 30
0.0
 11
59.391199999999991
 21
62.364100000000001
 31
0.0
  0
LINE
  5
8C
  8
0
  6
K5LT_BASIC
 10
59.391199999999991
 20
62.364100000000001
 30
0.0
 11
60.641199999999991
 21
64.5291
 31
0.0
  0
ENDBLK
  5
8E
  8
0
  0
BLOCK
  8
0
  2
U4
 70
     0
 10
0.0
 20
0.0
 30
0.0
  3
U4
  1
U4
  0
LINE
  5
91
  8
0
  6
K5LT_BASIC
 10
71.4833
 20
44.249999999999993
 30
0.0
 11
71.4833
 21
45.75
 31
0.0
  0
LINE
  5
92
  8
0
  6
K5LT_BASIC
 10
71.4833
 20
45.75
 30
0.0
 11
68.9833
 21
45.75
 31
0.0
  0
LINE
  5
93
  8
0
  6
K5LT_BASIC
 10
68.9833
 20
45.75
 30
0.0
 11
68.9833
 21
44.249999999999993
 31
0.0
  0
LINE
  5
94
  8
0
  6
K5LT_BASIC
 10
68.9833
 20
44.249999999999993
 30
0.0
 11
71.4833
 21
44.249999999999993
 31
0.0
  0
ENDBLK
  5
96
  8
0
  0
BLOCK
  8
0
  2
U5
 70
     0
 10
0.0
 20
0.0
 30
0.0
  3
U5
  1
U5
  0
LINE
  5
99
  8
0
  6
K5LT_BASIC
 10
28.0167
 20
44.249999999999993
 30
0.0
 11
28.0167
 21
45.75
 31
0.0
  0
LINE
  5
9A
  8
0
  6
K5LT_BASIC
 10
28.0167
 20
45.75
 30
0.0
 11
25.5167
 21
45.75
 31
0.0
  0
LINE
  5
9B
  8
0
  6
K5LT_BASIC
 10
25.5167
 20
45.75
 30
0.0
 11
25.5167
 21
44.249999999999993
 31
0.0
  0
LINE
  5
9C
  8
0
  6
K5LT_BASIC
 10
25.5167
 20
44.249999999999993
 30
0.0
 11
28.0167
 21
44.249999999999993
 31
0.0
  0
ENDBLK
  5
9E
  8
0
  0
BLOCK
  8
0
  2
U6
 70
     0
 10
0.0
 20
0.0
 30
0.0
  3
U6
  1
U6
  0
LINE
  5
A1
  8
0
  6
K5LT_BASIC
 10
38.907899999999998
 20
26.885899999999999
 30
0.0
 11
37.608800000000002
 21
27.635899999999999
 31
0.0
  0
LINE
  5
A2
  8
0
  6
K5LT_BASIC
 10
37.608800000000002
 20
27.635899999999999
 30
0.0
 11
36.358800000000002
 21
25.4709
 31
0.0
  0
LINE
  5
A3
  8
0
  6
K5LT_BASIC
 10
36.358800000000002
 20
25.4709
 30
0.0
 11
37.657899999999998
 21
24.7209
 31
0.0
  0
LINE
  5
A4
  8
0
  6
K5LT_BASIC
 10
37.657899999999998
 20
24.7209
 30
0.0
 11
38.907899999999998
 21
26.885899999999999
 31
0.0
  0
ENDBLK
  5
A6
  8
0
  0
BLOCK
  8
0
  2
U7
 70
     0
 10
0.0
 20
0.0
 30
0.0
  3
U7
  1
U7
  0
LINE
  5
A9
  8
0
  6
K5LT_BASIC
 10
31.135899999999999
 20
34.108800000000009
 30
0.0
 11
30.385899999999999
 21
35.407899999999998
 31
0.0
  0
LINE
  5
AA
  8
0
  6
K5LT_BASIC
 10
30.385899999999999
 20
35.407899999999998
 30
0.0
 11
28.2209
 21
34.157899999999998
 31
0.0
  0
LINE
  5
AB
  8
0
  6
K5LT_BASIC
 10
28.2209
 20
34.157899999999998
 30
0.0
 11
28.9709
 21
32.858800000000009
 31
0.0
  0
LINE
  5
AC
  8
0
  6
K5LT_BASIC
 10
28.9709
 20
32.858800000000009
 30
0.0
 11
31.135899999999999
 21
34.108800000000009
 31
0.0
  0
ENDBLK
  5
AE
  8
0
  0
BLOCK
  8
0
  2
U8
 70
     0
 10
0.0
 20
0.0
 30
0.0
  3
U8
  1
U8
  0
LINE
  5
B1
  8
0
  6
K5LT_BASIC
 10
47.75
 20
22.0167
 30
0.0
 11
49.25
 21
22.0167
 31
0.0
  0
LINE
  5
B2
  8
0
  6
K5LT_BASIC
 10
49.25
 20
22.0167
 30
0.0
 11
49.25
 21
24.5167
 31
0.0
  0
LINE
  5
B3
  8
0
  6
K5LT_BASIC
 10
49.25
 20
24.5167
 30
0.0
 11
47.75
 21
24.5167
 31
0.0
  0
LINE
  5
B4
  8
0
  6
K5LT_BASIC
 10
47.75
 20
24.5167
 30
0.0
 11
47.75
 21
22.0167
 31
0.0
  0
ENDBLK
  5
B6
  8
0
  0
BLOCK
  8
0
  2
U9
 70
     0
 10
0.0
 20
0.0
 30
0.0
  3
U9
  1
U9
  0
LINE
  5
B9
  8
0
  6
K5LT_BASIC
 10
59.391199999999991
 20
27.635899999999999
 30
0.0
 11
58.092100000000002
 21
26.885899999999999
 31
0.0
  0
LINE
  5
BA
  8
0
  6
K5LT_BASIC
 10
58.092100000000002
 20
26.885899999999999
 30
0.0
 11
59.342100000000002
 21
24.7209
 31
0.0
  0
LINE
  5
BB
  8
0
  6
K5LT_BASIC
 10
59.342100000000002
 20
24.7209
 30
0.0
 11
60.641199999999991
 21
25.4709
 31
0.0
  0
LINE
  5
BC
  8
0
  6
K5LT_BASIC
 10
60.641199999999991
 20
25.4709
 30
0.0
 11
59.391199999999991
 21
27.635899999999999
 31
0.0
  0
ENDBLK
  5
BE
  8
0
  0
BLOCK
  8
0
  2
U10
 70
     0
 10
0.0
 20
0.0
 30
0.0
  3
U10
  1
U10
  0
LINE
  5
C1
  8
0
  6
K5LT_BASIC
 10
37.657899999999998
 20
65.2791
 30
0.0
 11
36.358800000000002
 21
64.5291
 31
0.0
  0
LINE
  5
C2
  8
0
  6
K5LT_BASIC
 10
36.358800000000002
 20
64.5291
 30
0.0
 11
37.608800000000002
 21
62.364100000000001
 31
0.0
  0
LINE
  5
C3
  8
0
  6
K5LT_BASIC
 10
37.608800000000002
 20
62.364100000000001
 30
0.0
 11
38.907899999999998
 21
63.114100000000001
 31
0.0
  0
LINE
  5
C4
  8
0
  6
K5LT_BASIC
 10
38.907899999999998
 20
63.114100000000001
 30
0.0
 11
37.657899999999998
 21
65.2791
 31
0.0
  0
ENDBLK
  5
C6
  8
0
  0
BLOCK
  8
0
  2
U11
 70
     0
 10
0.0
 20
0.0
 30
0.0
  3
U11
  1
U11
  0
LINE
  5
C9
  8
0
  6
K5LT_BASIC
 10
28.9709
 20
57.141199999999998
 30
0.0
 11
28.2209
 21
55.842100000000002
 31
0.0
  0
LINE
  5
CA
  8
0
  6
K5LT_BASIC
 10
28.2209
 20
55.842100000000002
 30
0.0
 11
30.385899999999999
 21
54.592100000000002
 31
0.0
  0
LINE
  5
CB
  8
0
  6
K5LT_BASIC
 10
30.385899999999999
 20
54.592100000000002
 30
0.0
 11
31.135899999999999
 21
55.891199999999998
 31
0.0
  0
LINE
  5
CC
  8
0
  6
K5LT_BASIC
 10
31.135899999999999
 20
55.891199999999998
 30
0.0
 11
28.9709
 21
57.141199999999998
 31
0.0
  0
ENDBLK
  5
CE
  8
0
  0
BLOCK
  8
0
  2
U12
 70
     0
 10
0.0
 20
0.0
 30
0.0
  3
U12
  1
U12
  0
LINE
  5
D1
  8
0
  6
K5LT_BASIC
 10
66.614099999999993
 20
35.407899999999998
 30
0.0
 11
65.864099999999993
 21
34.108800000000009
 31
0.0
  0
LINE
  5
D2
  8
0
  6
K5LT_BASIC
 10
65.864099999999993
 20
34.108800000000009
 30
0.0
 11
68.0291
 21
32.858800000000009
 31
0.0
  0
LINE
  5
D3
  8
0
  6
K5LT_BASIC
 10
68.0291
 20
32.858800000000009
 30
0.0
 11
68.779099999999985
 21
34.157899999999998
 31
0.0
  0
LINE
  5
D4
  8
0
  6
K5LT_BASIC
 10
68.779099999999985
 20
34.157899999999998
 30
0.0
 11
66.614099999999993
 21
35.407899999999998
 31
0.0
  0
ENDBLK
  5
D6
  8
0
  0
ENDSEC
  0
SECTION
  2
ENTITIES
  0
CIRCLE
  5
75
  8
0
  6
K5LT_BASIC
 10
96.5
 20
32.5
 30
0.0
 40
10.5
  0
CIRCLE
  5
76
  8
0
  6
K5LT_BASIC
 10
96.5
 20
57.0
 30
0.0
 40
11.5
  0
LINE
  5
1AC
  8
0
  6
K5LT_BASIC
 10
66.614099999999993
 20
35.407899999999998
 30
0.0
 11
65.864099999999993
 21
34.108800000000009
 31
0.0
  0
LINE
  5
1AD
  8
0
  6
K5LT_BASIC
 10
65.864099999999993
 20
34.108800000000009
 30
0.0
 11
68.0291
 21
32.858800000000009
 31
0.0
  0
LINE
  5
1AE
  8
0
  6
K5LT_BASIC
 10
68.0291
 20
32.858800000000009
 30
0.0
 11
68.779099999999985
 21
34.157899999999998
 31
0.0
  0
LINE
  5
1AF
  8
0
  6
K5LT_BASIC
 10
68.779099999999985
 20
34.157899999999998
 30
0.0
 11
66.614099999999993
 21
35.407899999999998
 31
0.0
  0
LINE
  5
1B0
  8
0
  6
K5LT_BASIC
 10
28.9709
 20
57.141199999999998
 30
0.0
 11
28.2209
 21
55.842100000000002
 31
0.0
  0
LINE
  5
1B1
  8
0
  6
K5LT_BASIC
 10
28.2209
 20
55.842100000000002
 30
0.0
 11
30.385899999999999
 21
54.592100000000002
 31
0.0
  0
LINE
  5
1B2
  8
0
  6
K5LT_BASIC
 10
30.385899999999999
 20
54.592100000000002
 30
0.0
 11
31.135899999999999
 21
55.891199999999998
 31
0.0
  0
LINE
  5
1B3
  8
0
  6
K5LT_BASIC
 10
31.135899999999999
 20
55.891199999999998
 30
0.0
 11
28.9709
 21
57.141199999999998
 31
0.0
  0
LINE
  5
1B4
  8
0
  6
K5LT_BASIC
 10
37.657899999999998
 20
65.2791
 30
0.0
 11
36.358800000000002
 21
64.5291
 31
0.0
  0
LINE
  5
1B5
  8
0
  6
K5LT_BASIC
 10
36.358800000000002
 20
64.5291
 30
0.0
 11
37.608800000000002
 21
62.364100000000001
 31
0.0
  0
LINE
  5
1B6
  8
0
  6
K5LT_BASIC
 10
37.608800000000002
 20
62.364100000000001
 30
0.0
 11
38.907899999999998
 21
63.114100000000001
 31
0.0
  0
LINE
  5
1B7
  8
0
  6
K5LT_BASIC
 10
38.907899999999998
 20
63.114100000000001
 30
0.0
 11
37.657899999999998
 21
65.2791
 31
0.0
  0
LINE
  5
1B8
  8
0
  6
K5LT_BASIC
 10
59.391199999999991
 20
27.635899999999999
 30
0.0
 11
58.092100000000002
 21
26.885899999999999
 31
0.0
  0
LINE
  5
1B9
  8
0
  6
K5LT_BASIC
 10
58.092100000000002
 20
26.885899999999999
 30
0.0
 11
59.342100000000002
 21
24.7209
 31
0.0
  0
LINE
  5
1BA
  8
0
  6
K5LT_BASIC
 10
59.342100000000002
 20
24.7209
 30
0.0
 11
60.641199999999991
 21
25.4709
 31
0.0
  0
LINE
  5
1BB
  8
0
  6
K5LT_BASIC
 10
60.641199999999991
 20
25.4709
 30
0.0
 11
59.391199999999991
 21
27.635899999999999
 31
0.0
  0
LINE
  5
1BC
  8
0
  6
K5LT_BASIC
 10
47.75
 20
22.0167
 30
0.0
 11
49.25
 21
22.0167
 31
0.0
  0
LINE
  5
1BD
  8
0
  6
K5LT_BASIC
 10
49.25
 20
22.0167
 30
0.0
 11
49.25
 21
24.5167
 31
0.0
  0
LINE
  5
1BE
  8
0
  6
K5LT_BASIC
 10
49.25
 20
24.5167
 30
0.0
 11
47.75
 21
24.5167
 31
0.0
  0
LINE
  5
1BF
  8
0
  6
K5LT_BASIC
 10
47.75
 20
24.5167
 30
0.0
 11
47.75
 21
22.0167
 31
0.0
  0
LINE
  5
1C0
  8
0
  6
K5LT_BASIC
 10
31.135899999999999
 20
34.108800000000009
 30
0.0
 11
30.385899999999999
 21
35.407899999999998
 31
0.0
  0
LINE
  5
1C1
  8
0
  6
K5LT_BASIC
 10
30.385899999999999
 20
35.407899999999998
 30
0.0
 11
28.2209
 21
34.157899999999998
 31
0.0
  0
LINE
  5
1C2
  8
0
  6
K5LT_BASIC
 10
28.2209
 20
34.157899999999998
 30
0.0
 11
28.9709
 21
32.858800000000009
 31
0.0
  0
LINE
  5
1C3
  8
0
  6
K5LT_BASIC
 10
28.9709
 20
32.858800000000009
 30
0.0
 11
31.135899999999999
 21
34.108800000000009
 31
0.0
  0
LINE
  5
1C4
  8
0
  6
K5LT_BASIC
 10
38.907899999999998
 20
26.885899999999999
 30
0.0
 11
37.608800000000002
 21
27.635899999999999
 31
0.0
  0
LINE
  5
1C5
  8
0
  6
K5LT_BASIC
 10
37.608800000000002
 20
27.635899999999999
 30
0.0
 11
36.358800000000002
 21
25.4709
 31
0.0
  0
LINE
  5
1C6
  8
0
  6
K5LT_BASIC
 10
36.358800000000002
 20
25.4709
 30
0.0
 11
37.657899999999998
 21
24.7209
 31
0.0
  0
LINE
  5
1C7
  8
0
  6
K5LT_BASIC
 10
37.657899999999998
 20
24.7209
 30
0.0
 11
38.907899999999998
 21
26.885899999999999
 31
0.0
  0
LINE
  5
1C8
  8
0
  6
K5LT_BASIC
 10
28.0167
 20
44.249999999999993
 30
0.0
 11
28.0167
 21
45.75
 31
0.0
  0
LINE
  5
1C9
  8
0
  6
K5LT_BASIC
 10
28.0167
 20
45.75
 30
0.0
 11
25.5167
 21
45.75
 31
0.0
  0
LINE
  5
1CA
  8
0
  6
K5LT_BASIC
 10
25.5167
 20
45.75
 30
0.0
 11
25.5167
 21
44.249999999999993
 31
0.0
  0
LINE
  5
1CB
  8
0
  6
K5LT_BASIC
 10
25.5167
 20
44.249999999999993
 30
0.0
 11
28.0167
 21
44.249999999999993
 31
0.0
  0
LINE
  5
1CC
  8
0
  6
K5LT_BASIC
 10
71.4833
 20
44.249999999999993
 30
0.0
 11
71.4833
 21
45.75
 31
0.0
  0
LINE
  5
1CD
  8
0
  6
K5LT_BASIC
 10
71.4833
 20
45.75
 30
0.0
 11
68.9833
 21
45.75
 31
0.0
  0
LINE
  5
1CE
  8
0
  6
K5LT_BASIC
 10
68.9833
 20
45.75
 30
0.0
 11
68.9833
 21
44.249999999999993
 31
0.0
  0
LINE
  5
1CF
  8
0
  6
K5LT_BASIC
 10
68.9833
 20
44.249999999999993
 30
0.0
 11
71.4833
 21
44.249999999999993
 31
0.0
  0
LINE
  5
1D0
  8
0
  6
K5LT_BASIC
 10
60.641199999999991
 20
64.5291
 30
0.0
 11
59.342100000000002
 21
65.2791
 31
0.0
  0
LINE
  5
1D1
  8
0
  6
K5LT_BASIC
 10
59.342100000000002
 20
65.2791
 30
0.0
 11
58.092100000000002
 21
63.114100000000001
 31
0.0
  0
LINE
  5
1D2
  8
0
  6
K5LT_BASIC
 10
58.092100000000002
 20
63.114100000000001
 30
0.0
 11
59.391199999999991
 21
62.364100000000001
 31
0.0
  0
LINE
  5
1D3
  8
0
  6
K5LT_BASIC
 10
59.391199999999991
 20
62.364100000000001
 30
0.0
 11
60.641199999999991
 21
64.5291
 31
0.0
  0
LINE
  5
1D4
  8
0
  6
K5LT_BASIC
 10
68.779099999999985
 20
55.842100000000002
 30
0.0
 11
68.0291
 21
57.141199999999998
 31
0.0
  0
LINE
  5
1D5
  8
0
  6
K5LT_BASIC
 10
68.0291
 20
57.141199999999998
 30
0.0
 11
65.864099999999993
 21
55.891199999999998
 31
0.0
  0
LINE
  5
1D6
  8
0
  6
K5LT_BASIC
 10
65.864099999999993
 20
55.891199999999998
 30
0.0
 11
66.614099999999993
 21
54.592100000000002
 31
0.0
  0
LINE
  5
1D7
  8
0
  6
K5LT_BASIC
 10
66.614099999999993
 20
54.592100000000002
 30
0.0
 11
68.779099999999985
 21
55.842100000000002
 31
0.0
  0
LINE
  5
1D8
  8
0
  6
K5LT_BASIC
 10
47.75
 20
65.483299999999986
 30
0.0
 11
49.25
 21
65.483299999999986
 31
0.0
  0
LINE
  5
1D9
  8
0
  6
K5LT_BASIC
 10
49.25
 20
65.483299999999986
 30
0.0
 11
49.25
 21
67.983299999999986
 31
0.0
  0
LINE
  5
1DA
  8
0
  6
K5LT_BASIC
 10
49.25
 20
67.983299999999986
 30
0.0
 11
47.75
 21
67.983299999999986
 31
0.0
  0
LINE
  5
1DB
  8
0
  6
K5LT_BASIC
 10
47.75
 20
67.983299999999986
 30
0.0
 11
47.75
 21
65.483299999999986
 31
0.0
  0
LINE
  5
1DC
  8
0
  6
K5LT_BASIC
 10
20.0
 20
20.0
 30
0.0
 11
110.0
 21
20.0
 31
0.0
  0
LINE
  5
1DD
  8
0
  6
K5LT_BASIC
 10
110.0
 20
20.0
 30
0.0
 11
110.0
 21
70.0
 31
0.0
  0
LINE
  5
1DE
  8
0
  6
K5LT_BASIC
 10
110.0
 20
70.0
 30
0.0
 11
20.0
 21
70.0
 31
0.0
  0
LINE
  5
1DF
  8
0
  6
K5LT_BASIC
 10
20.0
 20
70.0
 30
0.0
 11
20.0
 21
20.0
 31
0.0
  0
ENDSEC
  0
EOF
