  0
SECTION
  2
HEADER
  9
$ACADVER
  1
AC1009
  9
$INSBASE
 10
0.0
 20
0.0
 30
0.0
  9
$EXTMIN
 10
20.0
 20
20.0
 30
0.0
  9
$EXTMAX
 10
110.0
 20
70.0
 30
0.0
  9
$LIMMIN
 10
0.0
 20
0.0
  9
$LIMMAX
 10
420.0
 20
297.0
  9
$ORTHOMODE
 70
     0
  9
$REGENMODE
 70
     1
  9
$FILLMODE
 70
     1
  9
$QTEXTMODE
 70
     0
  9
$MIRRTEXT
 70
     1
  9
$DRAGMODE
 70
     2
  9
$LTSCALE
 40
1.0
  9
$OSMODE
 70
    37
  9
$ATTMODE
 70
     1
  9
$TEXTSIZE
 40
2.5
  9
$TRACEWID
 40
1.0
  9
$TEXTSTYLE
  7
STANDARD
  9
$CLAYER
  8
0
  9
$CELTYPE
  6
BYLAYER
  9
$CECOLOR
 62
   256
  9
$DIMSCALE
 40
1.0
  9
$DIMASZ
 40
2.5
  9
$DIMEXO
 40
0.625
  9
$DIMDLI
 40
3.75
  9
$DIMRND
 40
0.0
  9
$DIMDLE
 40
0.0
  9
$DIMEXE
 40
1.25
  9
$DIMTP
 40
0.0
  9
$DIMTM
 40
0.0
  9
$DIMTXT
 40
2.5
  9
$DIMCEN
 40
2.5
  9
$DIMTSZ
 40
0.0
  9
$DIMTOL
 70
     0
  9
$DIMLIM
 70
     0
  9
$DIMTIH
 70
     0
  9
$DIMTOH
 70
     0
  9
$DIMSE1
 70
     0
  9
$DIMSE2
 70
     0
  9
$DIMTAD
 70
     1
  9
$DIMZIN
 70
     8
  9
$DIMBLK
  1

  9
$DIMASO
 70
     1
  9
$DIMSHO
 70
     1
  9
$DIMPOST
  1

  9
$DIMAPOST
  1

  9
$DIMALT
 70
     0
  9
$DIMALTD
 70
     3
  9
$DIMALTF
 40
0.0394
  9
$DIMLFAC
 40
1.0
  9
$DIMTOFL
 70
     1
  9
$DIMTVP
 40
0.0
  9
$DIMTIX
 70
     0
  9
$DIMSOXD
 70
     0
  9
$DIMSAH
 70
     0
  9
$DIMBLK1
  1

  9
$DIMBLK2
  1

  9
$DIMSTYLE
  2
ISO-25
  9
$DIMCLRD
 70
     0
  9
$DIMCLRE
 70
     0
  9
$DIMCLRT
 70
     0
  9
$DIMTFAC
 40
1.0
  9
$DIMGAP
 40
0.625
  9
$LUNITS
 70
     2
  9
$LUPREC
 70
     4
  9
$SKETCHINC
 40
1.0
  9
$FILLETRAD
 40
10.0
  9
$AUNITS
 70
     0
  9
$AUPREC
 70
     0
  9
$MENU
  1
.
  9
$ELEVATION
 40
0.0
  9
$PELEVATION
 40
0.0
  9
$THICKNESS
 40
0.0
  9
$LIMCHECK
 70
     0
  9
$BLIPMODE
 70
     0
  9
$CHAMFERA
 40
0.0
  9
$CHAMFERB
 40
0.0
  9
$SKPOLY
 70
     0
  9
$TDCREATE
 40
2457465.7251088428
  9
$TDUPDATE
 40
2457466.4325731602
  9
$TDINDWG
 40
0.0063028009
  9
$TDUSRTIMER
 40
0.0063014815
  9
$USRTIMER
 70
     1
  9
$ANGBASE
 50
0.0
  9
$ANGDIR
 70
     0
  9
$PDMODE
 70
     0
  9
$PDSIZE
 40
0.0
  9
$PLINEWID
 40
0.0
  9
$COORDS
 70
     1
  9
$SPLFRAME
 70
     0
  9
$SPLINETYPE
 70
     6
  9
$SPLINESEGS
 70
     8
  9
$ATTDIA
 70
     0
  9
$ATTREQ
 70
     1
  9
$HANDLING
 70
     1
  9
$HANDSEED
  5
3C8
  9
$SURFTAB1
 70
     6
  9
$SURFTAB2
 70
     6
  9
$SURFTYPE
 70
     6
  9
$SURFU
 70
     6
  9
$SURFV
 70
     6
  9
$UCSNAME
  2

  9
$UCSORG
 10
0.0
 20
0.0
 30
0.0
  9
$UCSXDIR
 10
1.0
 20
0.0
 30
0.0
  9
$UCSYDIR
 10
0.0
 20
1.0
 30
0.0
  9
$PUCSNAME
  2

  9
$PUCSORG
 10
0.0
 20
0.0
 30
0.0
  9
$PUCSXDIR
 10
1.0
 20
0.0
 30
0.0
  9
$PUCSYDIR
 10
0.0
 20
1.0
 30
0.0
  9
$USERI1
 70
     0
  9
$USERI2
 70
     0
  9
$USERI3
 70
     0
  9
$USERI4
 70
     0
  9
$USERI5
 70
     0
  9
$USERR1
 40
0.0
  9
$USERR2
 40
0.0
  9
$USERR3
 40
0.0
  9
$USERR4
 40
0.0
  9
$USERR5
 40
0.0
  9
$WORLDVIEW
 70
     1
  9
$SHADEDGE
 70
     3
  9
$SHADEDIF
 70
    70
  9
$TILEMODE
 70
     1
  9
$MAXACTVP
 70
    64
  9
$PLIMCHECK
 70
     0
  9
$PEXTMIN
 10
1.0000000000000000E+020
 20
1.0000000000000000E+020
 30
1.0000000000000000E+020
  9
$PEXTMAX
 10
-1.0000000000000000E+020
 20
-1.0000000000000000E+020
 30
-1.0000000000000000E+020
  9
$PLIMMIN
 10
0.0
 20
0.0
  9
$PLIMMAX
 10
420.0
 20
297.0
  9
$UNITMODE
 70
     0
  9
$VISRETAIN
 70
     1
  9
$PLINEGEN
 70
     0
  9
$PSLTSCALE
 70
     1
  0
ENDSEC
  0
SECTION
  2
TABLES
  0
TABLE
  2
VPORT
 70
     1
  0
VPORT
  2
*ACTIVE
 70
     0
 10
0.0
 20
0.0
 11
1.0
 21
1.0
 12
73.871165734974227
 22
37.752739667566033
 13
0.0
 23
0.0
 14
10.0
 24
10.0
 15
10.0
 25
10.0
 16
0.0
 26
0.0
 36
1.0
 17
0.0
 27
0.0
 37
0.0
 40
104.7493245548028
 41
1.6366492146596849
 42
50.0
 43
0.0
 44
0.0
 50
0.0
 51
0.0
 71
     0
 72
   100
 73
     1
 74
     3
 75
     0
 76
     0
 77
     0
 78
     0
  0
ENDTAB
  0
TABLE
  2
LTYPE
 70
     2
  0
LTYPE
  2
CONTINUOUS
 70
     0
  3
Solid line
 72
    65
 73
     0
 40
0.0
  0
LTYPE
  2
K5LT_BASIC
 70
     0
  3

 72
    65
 73
     0
 40
0.0
  0
ENDTAB
  0
TABLE
  2
LAYER
 70
     2
  0
LAYER
  2
0
 70
     0
 62
     7
  6
CONTINUOUS
  0
LAYER
  2
—»—“≈ÃÕ€…_—ÀŒ…
 70
     0
 62
     7
  6
CONTINUOUS
  0
ENDTAB
  0
TABLE
  2
STYLE
 70
     3
  0
STYLE
  2
STANDARD
 70
     0
 40
0.0
 41
1.0
 50
0.0
 71
     0
 42
2.5
  3
txt
  4

  0
STYLE
  2
ANNOTATIVE
 70
     0
 40
0.0
 41
1.0
 50
0.0
 71
     0
 42
0.2
  3
txt
  4

  0
STYLE
  2
KTEXTSTYLE
 70
     0
 40
5.0
 41
0.9599999999999999
 50
0.0
 71
     0
 42
2.5
  3
txt
  4

  0
ENDTAB
  0
TABLE
  2
VIEW
 70
     0
  0
ENDTAB
  0
TABLE
  2
UCS
 70
     0
  0
ENDTAB
  0
TABLE
  2
APPID
 70
     4
  0
APPID
  2
ACAD
 70
     0
  0
APPID
  2
ACADANNOTATIVE
 70
     0
  0
APPID
  2
KOMPAS
 70
     0
  0
APPID
  2
ACAD_MLEADERVER
 70
     0
  0
ENDTAB
  0
TABLE
  2
DIMSTYLE
 70
     3
  0
DIMSTYLE
  2
STANDARD
 70
     0
  3

  4

  5

  6

  7

 40
1.0
 41
0.18
 42
0.0625
 43
0.38
 44
0.18
 45
0.0
 46
0.0
 47
0.0
 48
0.0
140
0.18
141
0.09
142
0.0
143
25.399999999999999
144
1.0
145
0.0
146
1.0
147
0.09
 71
     0
 72
     0
 73
     1
 74
     1
 75
     0
 76
     0
 77
     0
 78
     0
170
     0
171
     2
172
     0
173
     0
174
     0
175
     0
176
     0
177
     0
178
     0
  0
DIMSTYLE
  2
ANNOTATIVE
 70
     0
  3

  4

  5

  6

  7

 40
1.0
 41
0.18
 42
0.0625
 43
0.38
 44
0.18
 45
0.0
 46
0.0
 47
0.0
 48
0.0
140
0.18
141
0.09
142
0.0
143
25.399999999999999
144
1.0
145
0.0
146
1.0
147
0.09
 71
     0
 72
     0
 73
     1
 74
     1
 75
     0
 76
     0
 77
     0
 78
     0
170
     0
171
     2
172
     0
173
     0
174
     0
175
     0
176
     0
177
     0
178
     0
  0
DIMSTYLE
  2
ISO-25
 70
     0
  3

  4

  5

  6

  7

 40
1.0
 41
2.5
 42
0.625
 43
3.75
 44
1.25
 45
0.0
 46
0.0
 47
0.0
 48
0.0
140
2.5
141
2.5
142
0.0
143
0.0394
144
1.0
145
0.0
146
1.0
147
0.625
 71
     0
 72
     0
 73
     0
 74
     0
 75
     0
 76
     0
 77
     1
 78
     8
170
     0
171
     3
172
     1
173
     0
174
     0
175
     0
176
     0
177
     0
178
     0
  0
ENDTAB
  0
ENDSEC
  0
SECTION
  2
BLOCKS
  0
BLOCK
  8
0
  2
$MODEL_SPACE
 70
     0
 10
0.0
 20
0.0
 30
0.0
  3
$MODEL_SPACE
  1

  0
ENDBLK
  5
353
  8
0
  0
BLOCK
 67
     1
  8
0
  2
$PAPER_SPACE
 70
     0
 10
0.0
 20
0.0
 30
0.0
  3
$PAPER_SPACE
  1

  0
ENDBLK
  5
34F
 67
     1
  8
0
  0
BLOCK
  8
0
  2
U0
 70
     0
 10
0.0
 20
0.0
 30
0.0
  3
U0
  1
U0
  0
LINE
  5
6F
  8
0
  6
K5LT_BASIC
 10
20.0
 20
20.0
 30
0.0
 11
110.0
 21
20.0
 31
0.0
  0
LINE
  5
70
  8
0
  6
K5LT_BASIC
 10
110.0
 20
20.0
 30
0.0
 11
110.0
 21
70.0
 31
0.0
  0
LINE
  5
71
  8
0
  6
K5LT_BASIC
 10
110.0
 20
70.0
 30
0.0
 11
20.0
 21
70.0
 31
0.0
  0
LINE
  5
72
  8
0
  6
K5LT_BASIC
 10
20.0
 20
70.0
 30
0.0
 11
20.0
 21
20.0
 31
0.0
  0
ENDBLK
  5
74
  8
0
  0
BLOCK
  8
0
  2
U1
 70
     0
 10
0.0
 20
0.0
 30
0.0
  3
U1
  1
U1
  0
LINE
  5
79
  8
0
  6
K5LT_BASIC
 10
47.75
 20
65.483299999999986
 30
0.0
 11
49.25
 21
65.483299999999986
 31
0.0
  0
LINE
  5
7A
  8
0
  6
K5LT_BASIC
 10
49.25
 20
65.483299999999986
 30
0.0
 11
49.25
 21
67.983299999999986
 31
0.0
  0
LINE
  5
7B
  8
0
  6
K5LT_BASIC
 10
49.25
 20
67.983299999999986
 30
0.0
 11
47.75
 21
67.983299999999986
 31
0.0
  0
LINE
  5
7C
  8
0
  6
K5LT_BASIC
 10
47.75
 20
67.983299999999986
 30
0.0
 11
47.75
 21
65.483299999999986
 31
0.0
  0
ENDBLK
  5
7E
  8
0
  0
BLOCK
  8
0
  2
U2
 70
     0
 10
0.0
 20
0.0
 30
0.0
  3
U2
  1
U2
  0
LINE
  5
81
  8
0
  6
K5LT_BASIC
 10
68.779099999999985
 20
55.842100000000002
 30
0.0
 11
68.0291
 21
57.141199999999998
 31
0.0
  0
LINE
  5
82
  8
0
  6
K5LT_BASIC
 10
68.0291
 20
57.141199999999998
 30
0.0
 11
65.864099999999993
 21
55.891199999999998
 31
0.0
  0
LINE
  5
83
  8
0
  6
K5LT_BASIC
 10
65.864099999999993
 20
55.891199999999998
 30
0.0
 11
66.614099999999993
 21
54.592100000000002
 31
0.0
  0
LINE
  5
84
  8
0
  6
K5LT_BASIC
 10
66.614099999999993
 20
54.592100000000002
 30
0.0
 11
68.779099999999985
 21
55.842100000000002
 31
0.0
  0
ENDBLK
  5
86
  8
0
  0
BLOCK
  8
0
  2
U3
 70
     0
 10
0.0
 20
0.0
 30
0.0
  3
U3
  1
U3
  0
LINE
  5
89
  8
0
  6
K5LT_BASIC
 10
60.641199999999991
 20
64.5291
 30
0.0
 11
59.342100000000002
 21
65.2791
 31
0.0
  0
LINE
  5
8A
  8
0
  6
K5LT_BASIC
 10
59.342100000000002
 20
65.2791
 30
0.0
 11
58.092100000000002
 21
63.114100000000001
 31
0.0
  0
LINE
  5
8B
  8
0
  6
K5LT_BASIC
 10
58.092100000000002
 20
63.114100000000001
 30
0.0
 11
59.391199999999991
 21
62.364100000000001
 31
0.0
  0
LINE
  5
8C
  8
0
  6
K5LT_BASIC
 10
59.391199999999991
 20
62.364100000000001
 30
0.0
 11
60.641199999999991
 21
64.5291
 31
0.0
  0
ENDBLK
  5
8E
  8
0
  0
BLOCK
  8
0
  2
U4
 70
     0
 10
0.0
 20
0.0
 30
0.0
  3
U4
  1
U4
  0
LINE
  5
91
  8
0
  6
K5LT_BASIC
 10
71.4833
 20
44.249999999999993
 30
0.0
 11
71.4833
 21
45.75
 31
0.0
  0
LINE
  5
92
  8
0
  6
K5LT_BASIC
 10
71.4833
 20
45.75
 30
0.0
 11
68.9833
 21
45.75
 31
0.0
  0
LINE
  5
93
  8
0
  6
K5LT_BASIC
 10
68.9833
 20
45.75
 30
0.0
 11
68.9833
 21
44.249999999999993
 31
0.0
  0
LINE
  5
94
  8
0
  6
K5LT_BASIC
 10
68.9833
 20
44.249999999999993
 30
0.0
 11
71.4833
 21
44.249999999999993
 31
0.0
  0
ENDBLK
  5
96
  8
0
  0
BLOCK
  8
0
  2
U5
 70
     0
 10
0.0
 20
0.0
 30
0.0
  3
U5
  1
U5
  0
LINE
  5
99
  8
0
  6
K5LT_BASIC
 10
28.0167
 20
44.249999999999993
 30
0.0
 11
28.0167
 21
45.75
 31
0.0
  0
LINE
  5
9A
  8
0
  6
K5LT_BASIC
 10
28.0167
 20
45.75
 30
0.0
 11
25.5167
 21
45.75
 31
0.0
  0
LINE
  5
9B
  8
0
  6
K5LT_BASIC
 10
25.5167
 20
45.75
 30
0.0
 11
25.5167
 21
44.249999999999993
 31
0.0
  0
LINE
  5
9C
  8
0
  6
K5LT_BASIC
 10
25.5167
 20
44.249999999999993
 30
0.0
 11
28.0167
 21
44.249999999999993
 31
0.0
  0
ENDBLK
  5
9E
  8
0
  0
BLOCK
  8
0
  2
U6
 70
     0
 10
0.0
 20
0.0
 30
0.0
  3
U6
  1
U6
  0
LINE
  5
A1
  8
0
  6
K5LT_BASIC
 10
38.907899999999998
 20
26.885899999999999
 30
0.0
 11
37.608800000000002
 21
27.635899999999999
 31
0.0
  0
LINE
  5
A2
  8
0
  6
K5LT_BASIC
 10
37.608800000000002
 20
27.635899999999999
 30
0.0
 11
36.358800000000002
 21
25.4709
 31
0.0
  0
LINE
  5
A3
  8
0
  6
K5LT_BASIC
 10
36.358800000000002
 20
25.4709
 30
0.0
 11
37.657899999999998
 21
24.7209
 31
0.0
  0
LINE
  5
A4
  8
0
  6
K5LT_BASIC
 10
37.657899999999998
 20
24.7209
 30
0.0
 11
38.907899999999998
 21
26.885899999999999
 31
0.0
  0
ENDBLK
  5
A6
  8
0
  0
BLOCK
  8
0
  2
U7
 70
     0
 10
0.0
 20
0.0
 30
0.0
  3
U7
  1
U7
  0
LINE
  5
A9
  8
0
  6
K5LT_BASIC
 10
31.135899999999999
 20
34.108800000000009
 30
0.0
 11
30.385899999999999
 21
35.407899999999998
 31
0.0
  0
LINE
  5
AA
  8
0
  6
K5LT_BASIC
 10
30.385899999999999
 20
35.407899999999998
 30
0.0
 11
28.2209
 21
34.157899999999998
 31
0.0
  0
LINE
  5
AB
  8
0
  6
K5LT_BASIC
 10
28.2209
 20
34.157899999999998
 30
0.0
 11
28.9709
 21
32.858800000000009
 31
0.0
  0
LINE
  5
AC
  8
0
  6
K5LT_BASIC
 10
28.9709
 20
32.858800000000009
 30
0.0
 11
31.135899999999999
 21
34.108800000000009
 31
0.0
  0
ENDBLK
  5
AE
  8
0
  0
BLOCK
  8
0
  2
U8
 70
     0
 10
0.0
 20
0.0
 30
0.0
  3
U8
  1
U8
  0
LINE
  5
B1
  8
0
  6
K5LT_BASIC
 10
47.75
 20
22.0167
 30
0.0
 11
49.25
 21
22.0167
 31
0.0
  0
LINE
  5
B2
  8
0
  6
K5LT_BASIC
 10
49.25
 20
22.0167
 30
0.0
 11
49.25
 21
24.5167
 31
0.0
  0
LINE
  5
B3
  8
0
  6
K5LT_BASIC
 10
49.25
 20
24.5167
 30
0.0
 11
47.75
 21
24.5167
 31
0.0
  0
LINE
  5
B4
  8
0
  6
K5LT_BASIC
 10
47.75
 20
24.5167
 30
0.0
 11
47.75
 21
22.0167
 31
0.0
  0
ENDBLK
  5
B6
  8
0
  0
BLOCK
  8
0
  2
U9
 70
     0
 10
0.0
 20
0.0
 30
0.0
  3
U9
  1
U9
  0
LINE
  5
B9
  8
0
  6
K5LT_BASIC
 10
59.391199999999991
 20
27.635899999999999
 30
0.0
 11
58.092100000000002
 21
26.885899999999999
 31
0.0
  0
LINE
  5
BA
  8
0
  6
K5LT_BASIC
 10
58.092100000000002
 20
26.885899999999999
 30
0.0
 11
59.342100000000002
 21
24.7209
 31
0.0
  0
LINE
  5
BB
  8
0
  6
K5LT_BASIC
 10
59.342100000000002
 20
24.7209
 30
0.0
 11
60.641199999999991
 21
25.4709
 31
0.0
  0
LINE
  5
BC
  8
0
  6
K5LT_BASIC
 10
60.641199999999991
 20
25.4709
 30
0.0
 11
59.391199999999991
 21
27.635899999999999
 31
0.0
  0
ENDBLK
  5
BE
  8
0
  0
BLOCK
  8
0
  2
U10
 70
     0
 10
0.0
 20
0.0
 30
0.0
  3
U10
  1
U10
  0
LINE
  5
C1
  8
0
  6
K5LT_BASIC
 10
37.657899999999998
 20
65.2791
 30
0.0
 11
36.358800000000002
 21
64.5291
 31
0.0
  0
LINE
  5
C2
  8
0
  6
K5LT_BASIC
 10
36.358800000000002
 20
64.5291
 30
0.0
 11
37.608800000000002
 21
62.364100000000001
 31
0.0
  0
LINE
  5
C3
  8
0
  6
K5LT_BASIC
 10
37.608800000000002
 20
62.364100000000001
 30
0.0
 11
38.907899999999998
 21
63.114100000000001
 31
0.0
  0
LINE
  5
C4
  8
0
  6
K5LT_BASIC
 10
38.907899999999998
 20
63.114100000000001
 30
0.0
 11
37.657899999999998
 21
65.2791
 31
0.0
  0
ENDBLK
  5
C6
  8
0
  0
BLOCK
  8
0
  2
U11
 70
     0
 10
0.0
 20
0.0
 30
0.0
  3
U11
  1
U11
  0
LINE
  5
C9
  8
0
  6
K5LT_BASIC
 10
28.9709
 20
57.141199999999998
 30
0.0
 11
28.2209
 21
55.842100000000002
 31
0.0
  0
LINE
  5
CA
  8
0
  6
K5LT_BASIC
 10
28.2209
 20
55.842100000000002
 30
0.0
 11
30.385899999999999
 21
54.592100000000002
 31
0.0
  0
LINE
  5
CB
  8
0
  6
K5LT_BASIC
 10
30.385899999999999
 20
54.592100000000002
 30
0.0
 11
31.135899999999999
 21
55.891199999999998
 31
0.0
  0
LINE
  5
CC
  8
0
  6
K5LT_BASIC
 10
31.135899999999999
 20
55.891199999999998
 30
0.0
 11
28.9709
 21
57.141199999999998
 31
0.0
  0
ENDBLK
  5
CE
  8
0
  0
BLOCK
  8
0
  2
U12
 70
     0
 10
0.0
 20
0.0
 30
0.0
  3
U12
  1
U12
  0
LINE
  5
D1
  8
0
  6
K5LT_BASIC
 10
66.614099999999993
 20
35.407899999999998
 30
0.0
 11
65.864099999999993
 21
34.108800000000009
 31
0.0
  0
LINE
  5
D2
  8
0
  6
K5LT_BASIC
 10
65.864099999999993
 20
34.108800000000009
 30
0.0
 11
68.0291
 21
32.858800000000009
 31
0.0
  0
LINE
  5
D3
  8
0
  6
K5LT_BASIC
 10
68.0291
 20
32.858800000000009
 30
0.0
 11
68.779099999999985
 21
34.157899999999998
 31
0.0
  0
LINE
  5
D4
  8
0
  6
K5LT_BASIC
 10
68.779099999999985
 20
34.157899999999998
 30
0.0
 11
66.614099999999993
 21
35.407899999999998
 31
0.0
  0
ENDBLK
  5
D6
  8
0
  0
ENDSEC
  0
SECTION
  2
ENTITIES
  0
CIRCLE
  5
75
  8
0
  6
K5LT_BASIC
 10
96.5
 20
32.5
 30
0.0
 40
10.5
  0
CIRCLE
  5
76
  8
0
  6
K5LT_BASIC
 10
96.5
 20
57.0
 30
0.0
 40
11.5
  0
TEXT
  5
16F
  8
0
 10
49.560120944617452
 20
56.83079878836309
 30
0.0
 40
1.8
  1
0
 50
350.76923076923089
  0
TEXT
  5
172
  8
0
 10
51.414121102464492
 20
56.525359550285167
 30
0.0
 40
1.8
  1
-
 50
341.53846153846189
  0
TEXT
  5
173
  8
0
 10
53.25201625804403
 20
55.886264867380852
 30
0.0
 40
1.8
  1
0
 50
332.30769230769238
  0
TEXT
  5
174
  8
0
 10
54.936798981235448
 20
54.983010614249622
 30
0.0
 40
1.8
  1
0
 50
323.07692307692321
  0
TEXT
  5
175
  8
0
 10
56.436435060313592
 20
53.850956975644607
 30
0.0
 40
1.8
  1
-
 50
313.8461538461541
  0
TEXT
  5
176
  8
0
 10
57.76879033471554
 20
52.428013973426367
 30
0.0
 40
1.8
  1
8
 50
304.61538461538493
  0
TEXT
  5
177
  8
0
 10
58.845027468103012
 20
50.852400814124962
 30
0.0
 40
1.8
  1
7
 50
295.3846153846153
  0
TEXT
  5
178
  8
0
 10
60.168988910712002
 20
47.2495919978724
 30
0.0
 40
1.8
  1
e
 50
276.92307692307708
  0
TEXT
  5
179
  8
0
 10
60.382541818266489
 20
45.442854132430142
 30
0.0
 40
1.8
  1
n
 50
267.69230769230779
  0
TEXT
  5
17A
  8
0
 10
60.285281825984882
 20
43.460557553520772
 30
0.0
 40
1.8
  1
g
 50
258.46153846153868
  0
TEXT
  5
17B
  8
0
 10
59.912113679255611
 20
41.659400451452811
 30
0.0
 40
1.8
  1
i
 50
249.23076923076931
  0
TEXT
  5
17C
  8
0
 10
59.227211299108887
 20
39.870015910758681
 30
0.0
 40
1.8
  1
n
 50
240.0
  0
TEXT
  5
17D
  8
0
 10
58.205766910856802
 20
38.142649308617699
 30
0.0
 40
1.8
  1
e
 50
230.769230769231
  0
TEXT
  5
17E
  8
0
 10
56.980127596636258
 20
36.674525579295711
 30
0.0
 40
1.8
  1
e
 50
221.53846153846149
  0
TEXT
  5
17F
  8
0
 10
55.604553970784181
 20
35.46609003114056
 30
0.0
 40
1.8
  1
r
 50
212.30769230769241
  0
TEXT
  5
180
  8
0
 10
53.961465637752447
 20
34.440695061826951
 30
0.0
 40
1.8
  1
-
 50
203.07692307692309
  0
TEXT
  5
181
  8
0
 10
52.232423870608969
 20
33.710079766804668
 30
0.0
 40
1.8
  1
h
 50
193.8461538461539
  0
TEXT
  5
182
  8
0
 10
50.21203423473834
 20
33.244616780887611
 30
0.0
 40
1.8
  1
w
 50
184.61538461538439
  0
TEXT
  5
183
  8
0
 10
48.367877224612172
 20
33.149097548874451
 30
0.0
 40
1.8
  1
@
 50
175.3846153846155
  0
TEXT
  5
184
  8
0
 10
46.40709072262564
 20
33.305946073174233
 30
0.0
 40
1.8
  1
y
 50
166.15384615384599
  0
TEXT
  5
185
  8
0
 10
44.622400802891981
 20
33.765835688876336
 30
0.0
 40
1.8
  1
a
 50
156.92307692307679
  0
TEXT
  5
186
  8
0
 10
42.942193349126811
 20
34.48799443406439
 30
0.0
 40
1.8
  1
n
 50
147.69230769230759
  0
TEXT
  5
187
  8
0
 10
41.274132539348102
 20
35.563362061517687
 30
0.0
 40
1.8
  1
d
 50
138.4615384615384
  0
TEXT
  5
188
  8
0
 10
39.839844773436361
 20
36.862054043525653
 30
0.0
 40
1.8
  1
e
 50
129.230769230769
  0
TEXT
  5
189
  8
0
 10
38.61531803240544
 20
38.410650407385489
 30
0.0
 40
1.8
  1
x
 50
119.9999999999999
  0
TEXT
  5
18A
  8
0
 10
37.742672152923092
 20
39.93287714190032
 30
0.0
 40
1.8
  1
.
 50
110.7692307692307
  0
TEXT
  5
18B
  8
0
 10
37.066352637416919
 20
41.737935223347748
 30
0.0
 40
1.8
  1
r
 50
101.53846153846131
  0
TEXT
  5
18C
  8
0
 10
36.691432362995172
 20
43.607214298590861
 30
0.0
 40
1.8
  1
u
 50
92.307692307692278
  0
TEXT
  5
18D
  8
0
 10
36.876457716147897
 20
47.481673298759098
 30
0.0
 40
1.8
  1
+
 50
73.846153846153712
  0
TEXT
  5
18E
  8
0
 10
37.42404903270041
 20
49.311905964824021
 30
0.0
 40
1.8
  1
7
 50
64.615384615384698
  0
TEXT
  5
18F
  8
0
 10
38.271087175902998
 20
50.995949255016832
 30
0.0
 40
1.8
  1
(
 50
55.384615384615437
  0
TEXT
  5
190
  8
0
 10
39.382803277691657
 20
52.611036762657108
 30
0.0
 40
1.8
  1
9
 50
46.153846153846217
  0
TEXT
  5
191
  8
0
 10
40.734903554892043
 20
53.984900163590261
 30
0.0
 40
1.8
  1
2
 50
36.923076923077062
  0
TEXT
  5
192
  8
0
 10
42.240266894670469
 20
55.094947157761382
 30
0.0
 40
1.8
  1
0
 50
27.69230769230764
  0
TEXT
  5
193
  8
0
 10
43.969312964980567
 20
55.953309784073589
 30
0.0
 40
1.8
  1
)
 50
18.461538461538488
  0
TEXT
  5
194
  8
0
 10
45.783597574530127
 20
56.561647768791701
 30
0.0
 40
1.8
  1
9
 50
9.2307692307691021
  0
TEXT
  5
195
  8
0
 10
47.648630286493862
 20
56.847733015006817
 30
0.0
 40
1.8
  1
0
  0
TEXT
  5
196
  8
0
 10
51.07473414686654
 20
61.822783336579363
 30
0.0
 40
2.5
  1
I
 50
348.0
  0
TEXT
  5
197
  8
0
 10
54.496635819291143
 20
60.92851472924783
 30
0.0
 40
2.5
  1
K
 50
335.99999999999972
  0
TEXT
  5
198
  8
0
 10
57.756968658853218
 20
59.223174498140871
 30
0.0
 40
2.5
  1
S
 50
324.00000000000028
  0
TEXT
  5
199
  8
0
 10
60.624537936306488
 20
56.926173484102833
 30
0.0
 40
2.5
  1
A
 50
311.99999999999989
  0
TEXT
  5
19A
  8
0
 10
62.714816299542981
 20
54.360302092292329
 30
0.0
 40
2.5
  1
N
 50
299.99999999999989
  0
TEXT
  5
19B
  8
0
 10
64.341587725451106
 20
51.089054587549818
 30
0.0
 40
2.5
  1
O
 50
287.99999999999972
  0
TEXT
  5
19C
  8
0
 10
65.318995261579317
 20
47.521878841830862
 30
0.0
 40
2.5
  1
V
 50
276.00000000000011
  0
TEXT
  5
19D
  8
0
 10
61.792553774157241
 20
34.371017741798831
 30
0.0
 40
2.5
  1
H
 50
227.9999999999998
  0
TEXT
  5
19E
  8
0
 10
59.068477811787041
 20
31.72973331959933
 30
0.0
 40
2.5
  1
\
 50
215.99999999999989
  0
TEXT
  5
19F
  8
0
 10
56.10632739891922
 20
29.78812474615539
 30
0.0
 40
2.5
  1
W
 50
204.0
  0
TEXT
  5
1A0
  8
0
 10
49.492291950886738
 20
28.009499999999999
 30
0.0
 40
2.5
  1
D
 50
180.0
  0
TEXT
  5
1A1
  8
0
 10
45.939677850524902
 20
28.174153298808299
 30
0.0
 40
2.5
  1
E
 50
167.9999999999998
  0
TEXT
  5
1A2
  8
0
 10
42.402554372675532
 20
29.163036333937612
 30
0.0
 40
2.5
  1
S
 50
156.0
  0
TEXT
  5
1A3
  8
0
 10
39.305385852497878
 20
30.678824992915359
 30
0.0
 40
2.5
  1
I
 50
144.00000000000011
  0
TEXT
  5
1A4
  8
0
 10
36.514497582252787
 20
32.983125970157118
 30
0.0
 40
2.5
  1
G
 50
131.9999999999998
  0
TEXT
  5
1A5
  8
0
 10
34.285183700457011
 20
35.639697907707671
 30
0.0
 40
2.5
  1
N
 50
119.9999999999999
  0
TEXT
  5
1A6
  8
0
 10
32.03345717206463
 20
49.303510211288923
 30
0.0
 40
2.5
  1
R
 50
71.999999999999844
  0
TEXT
  5
1A7
  8
0
 10
33.290436087905853
 20
52.637286792322541
 30
0.0
 40
2.5
  1
U
 50
60.000000000000057
  0
TEXT
  5
1A8
  8
0
 10
35.32238208818395
 20
55.692917424142273
 30
0.0
 40
2.5
  1
S
 50
48.000000000000107
  0
TEXT
  5
1A9
  8
0
 10
37.848187418175918
 20
58.262417730541422
 30
0.0
 40
2.5
  1
T
 50
35.999999999999758
  0
TEXT
  5
1AA
  8
0
 10
40.90414160768951
 20
60.216536355893481
 30
0.0
 40
2.5
  1
A
 50
24.000000000000188
  0
TEXT
  5
1AB
  8
0
 10
44.001685935737868
 20
61.413876790522529
 30
0.0
 40
2.5
  1
M
 50
12.000000000000011
  0
LINE
  5
1AC
  8
0
  6
K5LT_BASIC
 10
66.614099999999993
 20
35.407899999999998
 30
0.0
 11
65.864099999999993
 21
34.108800000000009
 31
0.0
  0
LINE
  5
1AD
  8
0
  6
K5LT_BASIC
 10
65.864099999999993
 20
34.108800000000009
 30
0.0
 11
68.0291
 21
32.858800000000009
 31
0.0
  0
LINE
  5
1AE
  8
0
  6
K5LT_BASIC
 10
68.0291
 20
32.858800000000009
 30
0.0
 11
68.779099999999985
 21
34.157899999999998
 31
0.0
  0
LINE
  5
1AF
  8
0
  6
K5LT_BASIC
 10
68.779099999999985
 20
34.157899999999998
 30
0.0
 11
66.614099999999993
 21
35.407899999999998
 31
0.0
  0
LINE
  5
1B0
  8
0
  6
K5LT_BASIC
 10
28.9709
 20
57.141199999999998
 30
0.0
 11
28.2209
 21
55.842100000000002
 31
0.0
  0
LINE
  5
1B1
  8
0
  6
K5LT_BASIC
 10
28.2209
 20
55.842100000000002
 30
0.0
 11
30.385899999999999
 21
54.592100000000002
 31
0.0
  0
LINE
  5
1B2
  8
0
  6
K5LT_BASIC
 10
30.385899999999999
 20
54.592100000000002
 30
0.0
 11
31.135899999999999
 21
55.891199999999998
 31
0.0
  0
LINE
  5
1B3
  8
0
  6
K5LT_BASIC
 10
31.135899999999999
 20
55.891199999999998
 30
0.0
 11
28.9709
 21
57.141199999999998
 31
0.0
  0
LINE
  5
1B4
  8
0
  6
K5LT_BASIC
 10
37.657899999999998
 20
65.2791
 30
0.0
 11
36.358800000000002
 21
64.5291
 31
0.0
  0
LINE
  5
1B5
  8
0
  6
K5LT_BASIC
 10
36.358800000000002
 20
64.5291
 30
0.0
 11
37.608800000000002
 21
62.364100000000001
 31
0.0
  0
LINE
  5
1B6
  8
0
  6
K5LT_BASIC
 10
37.608800000000002
 20
62.364100000000001
 30
0.0
 11
38.907899999999998
 21
63.114100000000001
 31
0.0
  0
LINE
  5
1B7
  8
0
  6
K5LT_BASIC
 10
38.907899999999998
 20
63.114100000000001
 30
0.0
 11
37.657899999999998
 21
65.2791
 31
0.0
  0
LINE
  5
1B8
  8
0
  6
K5LT_BASIC
 10
59.391199999999991
 20
27.635899999999999
 30
0.0
 11
58.092100000000002
 21
26.885899999999999
 31
0.0
  0
LINE
  5
1B9
  8
0
  6
K5LT_BASIC
 10
58.092100000000002
 20
26.885899999999999
 30
0.0
 11
59.342100000000002
 21
24.7209
 31
0.0
  0
LINE
  5
1BA
  8
0
  6
K5LT_BASIC
 10
59.342100000000002
 20
24.7209
 30
0.0
 11
60.641199999999991
 21
25.4709
 31
0.0
  0
LINE
  5
1BB
  8
0
  6
K5LT_BASIC
 10
60.641199999999991
 20
25.4709
 30
0.0
 11
59.391199999999991
 21
27.635899999999999
 31
0.0
  0
LINE
  5
1BC
  8
0
  6
K5LT_BASIC
 10
47.75
 20
22.0167
 30
0.0
 11
49.25
 21
22.0167
 31
0.0
  0
LINE
  5
1BD
  8
0
  6
K5LT_BASIC
 10
49.25
 20
22.0167
 30
0.0
 11
49.25
 21
24.5167
 31
0.0
  0
LINE
  5
1BE
  8
0
  6
K5LT_BASIC
 10
49.25
 20
24.5167
 30
0.0
 11
47.75
 21
24.5167
 31
0.0
  0
LINE
  5
1BF
  8
0
  6
K5LT_BASIC
 10
47.75
 20
24.5167
 30
0.0
 11
47.75
 21
22.0167
 31
0.0
  0
LINE
  5
1C0
  8
0
  6
K5LT_BASIC
 10
31.135899999999999
 20
34.108800000000009
 30
0.0
 11
30.385899999999999
 21
35.407899999999998
 31
0.0
  0
LINE
  5
1C1
  8
0
  6
K5LT_BASIC
 10
30.385899999999999
 20
35.407899999999998
 30
0.0
 11
28.2209
 21
34.157899999999998
 31
0.0
  0
LINE
  5
1C2
  8
0
  6
K5LT_BASIC
 10
28.2209
 20
34.157899999999998
 30
0.0
 11
28.9709
 21
32.858800000000009
 31
0.0
  0
LINE
  5
1C3
  8
0
  6
K5LT_BASIC
 10
28.9709
 20
32.858800000000009
 30
0.0
 11
31.135899999999999
 21
34.108800000000009
 31
0.0
  0
LINE
  5
1C4
  8
0
  6
K5LT_BASIC
 10
38.907899999999998
 20
26.885899999999999
 30
0.0
 11
37.608800000000002
 21
27.635899999999999
 31
0.0
  0
LINE
  5
1C5
  8
0
  6
K5LT_BASIC
 10
37.608800000000002
 20
27.635899999999999
 30
0.0
 11
36.358800000000002
 21
25.4709
 31
0.0
  0
LINE
  5
1C6
  8
0
  6
K5LT_BASIC
 10
36.358800000000002
 20
25.4709
 30
0.0
 11
37.657899999999998
 21
24.7209
 31
0.0
  0
LINE
  5
1C7
  8
0
  6
K5LT_BASIC
 10
37.657899999999998
 20
24.7209
 30
0.0
 11
38.907899999999998
 21
26.885899999999999
 31
0.0
  0
LINE
  5
1C8
  8
0
  6
K5LT_BASIC
 10
28.0167
 20
44.249999999999993
 30
0.0
 11
28.0167
 21
45.75
 31
0.0
  0
LINE
  5
1C9
  8
0
  6
K5LT_BASIC
 10
28.0167
 20
45.75
 30
0.0
 11
25.5167
 21
45.75
 31
0.0
  0
LINE
  5
1CA
  8
0
  6
K5LT_BASIC
 10
25.5167
 20
45.75
 30
0.0
 11
25.5167
 21
44.249999999999993
 31
0.0
  0
LINE
  5
1CB
  8
0
  6
K5LT_BASIC
 10
25.5167
 20
44.249999999999993
 30
0.0
 11
28.0167
 21
44.249999999999993
 31
0.0
  0
LINE
  5
1CC
  8
0
  6
K5LT_BASIC
 10
71.4833
 20
44.249999999999993
 30
0.0
 11
71.4833
 21
45.75
 31
0.0
  0
LINE
  5
1CD
  8
0
  6
K5LT_BASIC
 10
71.4833
 20
45.75
 30
0.0
 11
68.9833
 21
45.75
 31
0.0
  0
LINE
  5
1CE
  8
0
  6
K5LT_BASIC
 10
68.9833
 20
45.75
 30
0.0
 11
68.9833
 21
44.249999999999993
 31
0.0
  0
LINE
  5
1CF
  8
0
  6
K5LT_BASIC
 10
68.9833
 20
44.249999999999993
 30
0.0
 11
71.4833
 21
44.249999999999993
 31
0.0
  0
LINE
  5
1D0
  8
0
  6
K5LT_BASIC
 10
60.641199999999991
 20
64.5291
 30
0.0
 11
59.342100000000002
 21
65.2791
 31
0.0
  0
LINE
  5
1D1
  8
0
  6
K5LT_BASIC
 10
59.342100000000002
 20
65.2791
 30
0.0
 11
58.092100000000002
 21
63.114100000000001
 31
0.0
  0
LINE
  5
1D2
  8
0
  6
K5LT_BASIC
 10
58.092100000000002
 20
63.114100000000001
 30
0.0
 11
59.391199999999991
 21
62.364100000000001
 31
0.0
  0
LINE
  5
1D3
  8
0
  6
K5LT_BASIC
 10
59.391199999999991
 20
62.364100000000001
 30
0.0
 11
60.641199999999991
 21
64.5291
 31
0.0
  0
LINE
  5
1D4
  8
0
  6
K5LT_BASIC
 10
68.779099999999985
 20
55.842100000000002
 30
0.0
 11
68.0291
 21
57.141199999999998
 31
0.0
  0
LINE
  5
1D5
  8
0
  6
K5LT_BASIC
 10
68.0291
 20
57.141199999999998
 30
0.0
 11
65.864099999999993
 21
55.891199999999998
 31
0.0
  0
LINE
  5
1D6
  8
0
  6
K5LT_BASIC
 10
65.864099999999993
 20
55.891199999999998
 30
0.0
 11
66.614099999999993
 21
54.592100000000002
 31
0.0
  0
LINE
  5
1D7
  8
0
  6
K5LT_BASIC
 10
66.614099999999993
 20
54.592100000000002
 30
0.0
 11
68.779099999999985
 21
55.842100000000002
 31
0.0
  0
LINE
  5
1D8
  8
0
  6
K5LT_BASIC
 10
47.75
 20
65.483299999999986
 30
0.0
 11
49.25
 21
65.483299999999986
 31
0.0
  0
LINE
  5
1D9
  8
0
  6
K5LT_BASIC
 10
49.25
 20
65.483299999999986
 30
0.0
 11
49.25
 21
67.983299999999986
 31
0.0
  0
LINE
  5
1DA
  8
0
  6
K5LT_BASIC
 10
49.25
 20
67.983299999999986
 30
0.0
 11
47.75
 21
67.983299999999986
 31
0.0
  0
LINE
  5
1DB
  8
0
  6
K5LT_BASIC
 10
47.75
 20
67.983299999999986
 30
0.0
 11
47.75
 21
65.483299999999986
 31
0.0
  0
LINE
  5
1DC
  8
0
  6
K5LT_BASIC
 10
20.0
 20
20.0
 30
0.0
 11
110.0
 21
20.0
 31
0.0
  0
LINE
  5
1DD
  8
0
  6
K5LT_BASIC
 10
110.0
 20
20.0
 30
0.0
 11
110.0
 21
70.0
 31
0.0
  0
LINE
  5
1DE
  8
0
  6
K5LT_BASIC
 10
110.0
 20
70.0
 30
0.0
 11
20.0
 21
70.0
 31
0.0
  0
LINE
  5
1DF
  8
0
  6
K5LT_BASIC
 10
20.0
 20
70.0
 30
0.0
 11
20.0
 21
20.0
 31
0.0
  0
ENDSEC
  0
EOF
