0
SECTION
2
HEADER
9
$ACADVER
1
AC1009
9
$TEXTSTYLE
7
STANDARD
9
$CECOLOR
62
256
9
$AUNITS
70
0
9
$LUNITS
70
3
9
$EXTMIN
10
99.9365000
20
99.7500000
9
$EXTMAX
10
190.0635000
20
150.1250000
9
$FILLMODE
70
1
0
ENDSEC
0
SECTION
2
TABLES
0
TABLE
2
LAYER
70
2
0
LAYER
2
Top
70
64
62
1
6
CONTINUOUS
0
LAYER
2
Board
70
64
62
3
6
CONTINUOUS
0
ENDTAB
0
ENDSEC
0
SECTION
2
BLOCKS
0
BLOCK
2
UNIT_DISC
8
0
70
0
10
0.0000000
20
0.0000000
0
POLYLINE
8
0
6
CONTINUOUS
66
1
70
1
40
0.5000000
41
0.5000000
0
VERTEX
8
0
10
0.2500000
20
0.0000000
42
1.0000000
0
VERTEX
8
0
10
-0.2500000
20
0.0000000
42
1.0000000
0
SEQEND
0
ENDBLK
0
BLOCK
2
UNIT_CIRCLE
8
0
70
0
10
0.0000000
20
0.0000000
0
CIRCLE
8
0
6
CONTINUOUS
10
0.0000000
20
0.0000000
40
0.5000000
0
ENDBLK
0
ENDSEC
0
SECTION
2
ENTITIES
0
INSERT
8
Top
2
UNIT_DISC
10
102.5400000
20
100.0000000
41
0.5000000
42
0.5000000
43
0.5000000
50
0.0000000
0
INSERT
8
Top
2
UNIT_DISC
10
102.5400000
20
102.5000000
41
0.5000000
42
0.5000000
43
0.5000000
50
0.0000000
0
POLYLINE
8
Top
6
CONTINUOUS
66
1
70
0
40
0.5000000
41
0.5000000
0
VERTEX
8
Top
10
102.5400000
20
100.0000000
42
0.0000000
0
VERTEX
8
Top
10
102.5400000
20
102.5000000
42
0.0000000
0
SEQEND
0
INSERT
8
Top
2
UNIT_DISC
10
105.0800000
20
100.0000000
41
0.5000000
42
0.5000000
43
0.5000000
50
0.0000000
0
INSERT
8
Top
2
UNIT_DISC
10
105.0800000
20
102.5000000
41
0.5000000
42
0.5000000
43
0.5000000
50
0.0000000
0
POLYLINE
8
Top
6
CONTINUOUS
66
1
70
0
40
0.5000000
41
0.5000000
0
VERTEX
8
Top
10
105.0800000
20
100.0000000
42
0.0000000
0
VERTEX
8
Top
10
105.0800000
20
102.5000000
42
0.0000000
0
SEQEND
0
INSERT
8
Top
2
UNIT_DISC
10
101.0000000
20
150.0000000
41
0.2500000
42
0.2500000
43
0.2500000
50
0.0000000
0
INSERT
8
Top
2
UNIT_DISC
10
101.0000000
20
148.0000000
41
0.2500000
42
0.2500000
43
0.2500000
50
0.0000000
0
POLYLINE
8
Top
6
CONTINUOUS
66
1
70
0
40
0.2500000
41
0.2500000
0
VERTEX
8
Top
10
101.0000000
20
150.0000000
42
0.0000000
0
VERTEX
8
Top
10
101.0000000
20
148.0000000
42
0.0000000
0
SEQEND
0
INSERT
8
Top
2
UNIT_DISC
10
102.0000000
20
150.0000000
41
0.2500000
42
0.2500000
43
0.2500000
50
0.0000000
0
INSERT
8
Top
2
UNIT_DISC
10
102.0000000
20
148.0000000
41
0.2500000
42
0.2500000
43
0.2500000
50
0.0000000
0
POLYLINE
8
Top
6
CONTINUOUS
66
1
70
0
40
0.2500000
41
0.2500000
0
VERTEX
8
Top
10
102.0000000
20
150.0000000
42
0.0000000
0
VERTEX
8
Top
10
102.0000000
20
148.0000000
42
0.0000000
0
SEQEND
0
INSERT
8
Top
2
UNIT_DISC
10
103.0000000
20
150.0000000
41
0.2500000
42
0.2500000
43
0.2500000
50
0.0000000
0
INSERT
8
Top
2
UNIT_DISC
10
103.0000000
20
148.0000000
41
0.2500000
42
0.2500000
43
0.2500000
50
0.0000000
0
POLYLINE
8
Top
6
CONTINUOUS
66
1
70
0
40
0.2500000
41
0.2500000
0
VERTEX
8
Top
10
103.0000000
20
150.0000000
42
0.0000000
0
VERTEX
8
Top
10
103.0000000
20
148.0000000
42
0.0000000
0
SEQEND
0
INSERT
8
Top
2
UNIT_DISC
10
104.0000000
20
150.0000000
41
0.2500000
42
0.2500000
43
0.2500000
50
0.0000000
0
INSERT
8
Top
2
UNIT_DISC
10
104.0000000
20
148.0000000
41
0.2500000
42
0.2500000
43
0.2500000
50
0.0000000
0
POLYLINE
8
Top
6
CONTINUOUS
66
1
70
0
40
0.2500000
41
0.2500000
0
VERTEX
8
Top
10
104.0000000
20
150.0000000
42
0.0000000
0
VERTEX
8
Top
10
104.0000000
20
148.0000000
42
0.0000000
0
SEQEND
0
INSERT
8
Top
2
UNIT_DISC
10
105.0000000
20
150.0000000
41
0.2500000
42
0.2500000
43
0.2500000
50
0.0000000
0
INSERT
8
Top
2
UNIT_DISC
10
105.0000000
20
148.0000000
41
0.2500000
42
0.2500000
43
0.2500000
50
0.0000000
0
POLYLINE
8
Top
6
CONTINUOUS
66
1
70
0
40
0.2500000
41
0.2500000
0
VERTEX
8
Top
10
105.0000000
20
150.0000000
42
0.0000000
0
VERTEX
8
Top
10
105.0000000
20
148.0000000
42
0.0000000
0
SEQEND
0
INSERT
8
Top
2
UNIT_DISC
10
106.0000000
20
150.0000000
41
0.2500000
42
0.2500000
43
0.2500000
50
0.0000000
0
INSERT
8
Top
2
UNIT_DISC
10
106.0000000
20
148.0000000
41
0.2500000
42
0.2500000
43
0.2500000
50
0.0000000
0
POLYLINE
8
Top
6
CONTINUOUS
66
1
70
0
40
0.2500000
41
0.2500000
0
VERTEX
8
Top
10
106.0000000
20
150.0000000
42
0.0000000
0
VERTEX
8
Top
10
106.0000000
20
148.0000000
42
0.0000000
0
SEQEND
0
INSERT
8
Top
2
UNIT_DISC
10
105.0000000
20
148.0000000
41
0.2500000
42
0.2500000
43
0.2500000
50
0.0000000
0
INSERT
8
Top
2
UNIT_DISC
10
105.0000000
20
147.0000000
41
0.2500000
42
0.2500000
43
0.2500000
50
0.0000000
0
POLYLINE
8
Top
6
CONTINUOUS
66
1
70
0
40
0.2500000
41
0.2500000
0
VERTEX
8
Top
10
105.0000000
20
148.0000000
42
0.0000000
0
VERTEX
8
Top
10
105.0000000
20
147.0000000
42
0.0000000
0
SEQEND
0
INSERT
8
Top
2
UNIT_DISC
10
107.6200000
20
100.0000000
41
0.5000000
42
0.5000000
43
0.5000000
50
0.0000000
0
INSERT
8
Top
2
UNIT_DISC
10
107.6200000
20
102.5000000
41
0.5000000
42
0.5000000
43
0.5000000
50
0.0000000
0
POLYLINE
8
Top
6
CONTINUOUS
66
1
70
0
40
0.5000000
41
0.5000000
0
VERTEX
8
Top
10
107.6200000
20
100.0000000
42
0.0000000
0
VERTEX
8
Top
10
107.6200000
20
102.5000000
42
0.0000000
0
SEQEND
0
INSERT
8
Top
2
UNIT_DISC
10
112.7000000
20
100.0000000
41
0.5000000
42
0.5000000
43
0.5000000
50
0.0000000
0
INSERT
8
Top
2
UNIT_DISC
10
112.7000000
20
104.0000000
41
0.5000000
42
0.5000000
43
0.5000000
50
0.0000000
0
POLYLINE
8
Top
6
CONTINUOUS
66
1
70
0
40
0.5000000
41
0.5000000
0
VERTEX
8
Top
10
112.7000000
20
100.0000000
42
0.0000000
0
VERTEX
8
Top
10
112.7000000
20
104.0000000
42
0.0000000
0
SEQEND
0
INSERT
8
Top
2
UNIT_DISC
10
110.1600000
20
100.0000000
41
0.5000000
42
0.5000000
43
0.5000000
50
0.0000000
0
INSERT
8
Top
2
UNIT_DISC
10
110.1600000
20
102.5000000
41
0.5000000
42
0.5000000
43
0.5000000
50
0.0000000
0
POLYLINE
8
Top
6
CONTINUOUS
66
1
70
0
40
0.5000000
41
0.5000000
0
VERTEX
8
Top
10
110.1600000
20
100.0000000
42
0.0000000
0
VERTEX
8
Top
10
110.1600000
20
102.5000000
42
0.0000000
0
SEQEND
0
INSERT
8
Top
2
UNIT_DISC
10
110.0000000
20
148.0000000
41
0.2500000
42
0.2500000
43
0.2500000
50
0.0000000
0
INSERT
8
Top
2
UNIT_DISC
10
110.0000000
20
146.0000000
41
0.2500000
42
0.2500000
43
0.2500000
50
0.0000000
0
POLYLINE
8
Top
6
CONTINUOUS
66
1
70
0
40
0.2500000
41
0.2500000
0
VERTEX
8
Top
10
110.0000000
20
148.0000000
42
0.0000000
0
VERTEX
8
Top
10
110.0000000
20
146.0000000
42
0.0000000
0
SEQEND
0
INSERT
8
Top
2
UNIT_DISC
10
110.0000000
20
150.0000000
41
0.2500000
42
0.2500000
43
0.2500000
50
0.0000000
0
INSERT
8
Top
2
UNIT_DISC
10
110.0000000
20
148.0000000
41
0.2500000
42
0.2500000
43
0.2500000
50
0.0000000
0
POLYLINE
8
Top
6
CONTINUOUS
66
1
70
0
40
0.2500000
41
0.2500000
0
VERTEX
8
Top
10
110.0000000
20
150.0000000
42
0.0000000
0
VERTEX
8
Top
10
110.0000000
20
148.0000000
42
0.0000000
0
SEQEND
0
INSERT
8
Top
2
UNIT_DISC
10
109.0000000
20
150.0000000
41
0.2500000
42
0.2500000
43
0.2500000
50
0.0000000
0
INSERT
8
Top
2
UNIT_DISC
10
109.0000000
20
148.0000000
41
0.2500000
42
0.2500000
43
0.2500000
50
0.0000000
0
POLYLINE
8
Top
6
CONTINUOUS
66
1
70
0
40
0.2500000
41
0.2500000
0
VERTEX
8
Top
10
109.0000000
20
150.0000000
42
0.0000000
0
VERTEX
8
Top
10
109.0000000
20
148.0000000
42
0.0000000
0
SEQEND
0
INSERT
8
Top
2
UNIT_DISC
10
108.0000000
20
150.0000000
41
0.2500000
42
0.2500000
43
0.2500000
50
0.0000000
0
INSERT
8
Top
2
UNIT_DISC
10
108.0000000
20
148.0000000
41
0.2500000
42
0.2500000
43
0.2500000
50
0.0000000
0
POLYLINE
8
Top
6
CONTINUOUS
66
1
70
0
40
0.2500000
41
0.2500000
0
VERTEX
8
Top
10
108.0000000
20
150.0000000
42
0.0000000
0
VERTEX
8
Top
10
108.0000000
20
148.0000000
42
0.0000000
0
SEQEND
0
INSERT
8
Top
2
UNIT_DISC
10
107.0000000
20
150.0000000
41
0.2500000
42
0.2500000
43
0.2500000
50
0.0000000
0
INSERT
8
Top
2
UNIT_DISC
10
107.0000000
20
148.0000000
41
0.2500000
42
0.2500000
43
0.2500000
50
0.0000000
0
POLYLINE
8
Top
6
CONTINUOUS
66
1
70
0
40
0.2500000
41
0.2500000
0
VERTEX
8
Top
10
107.0000000
20
150.0000000
42
0.0000000
0
VERTEX
8
Top
10
107.0000000
20
148.0000000
42
0.0000000
0
SEQEND
0
INSERT
8
Top
2
UNIT_DISC
10
111.0000000
20
150.0000000
41
0.2500000
42
0.2500000
43
0.2500000
50
0.0000000
0
INSERT
8
Top
2
UNIT_DISC
10
111.0000000
20
148.0000000
41
0.2500000
42
0.2500000
43
0.2500000
50
0.0000000
0
POLYLINE
8
Top
6
CONTINUOUS
66
1
70
0
40
0.2500000
41
0.2500000
0
VERTEX
8
Top
10
111.0000000
20
150.0000000
42
0.0000000
0
VERTEX
8
Top
10
111.0000000
20
148.0000000
42
0.0000000
0
SEQEND
0
INSERT
8
Top
2
UNIT_DISC
10
112.0000000
20
150.0000000
41
0.2500000
42
0.2500000
43
0.2500000
50
0.0000000
0
INSERT
8
Top
2
UNIT_DISC
10
112.0000000
20
148.0000000
41
0.2500000
42
0.2500000
43
0.2500000
50
0.0000000
0
POLYLINE
8
Top
6
CONTINUOUS
66
1
70
0
40
0.2500000
41
0.2500000
0
VERTEX
8
Top
10
112.0000000
20
150.0000000
42
0.0000000
0
VERTEX
8
Top
10
112.0000000
20
148.0000000
42
0.0000000
0
SEQEND
0
INSERT
8
Top
2
UNIT_DISC
10
113.0000000
20
150.0000000
41
0.2500000
42
0.2500000
43
0.2500000
50
0.0000000
0
INSERT
8
Top
2
UNIT_DISC
10
113.0000000
20
148.0000000
41
0.2500000
42
0.2500000
43
0.2500000
50
0.0000000
0
POLYLINE
8
Top
6
CONTINUOUS
66
1
70
0
40
0.2500000
41
0.2500000
0
VERTEX
8
Top
10
113.0000000
20
150.0000000
42
0.0000000
0
VERTEX
8
Top
10
113.0000000
20
148.0000000
42
0.0000000
0
SEQEND
0
INSERT
8
Top
2
UNIT_DISC
10
114.0000000
20
150.0000000
41
0.2500000
42
0.2500000
43
0.2500000
50
0.0000000
0
INSERT
8
Top
2
UNIT_DISC
10
114.0000000
20
148.0000000
41
0.2500000
42
0.2500000
43
0.2500000
50
0.0000000
0
POLYLINE
8
Top
6
CONTINUOUS
66
1
70
0
40
0.2500000
41
0.2500000
0
VERTEX
8
Top
10
114.0000000
20
150.0000000
42
0.0000000
0
VERTEX
8
Top
10
114.0000000
20
148.0000000
42
0.0000000
0
SEQEND
0
INSERT
8
Top
2
UNIT_DISC
10
115.2400000
20
100.0000000
41
0.5000000
42
0.5000000
43
0.5000000
50
0.0000000
0
INSERT
8
Top
2
UNIT_DISC
10
115.2400000
20
102.5000000
41
0.5000000
42
0.5000000
43
0.5000000
50
0.0000000
0
POLYLINE
8
Top
6
CONTINUOUS
66
1
70
0
40
0.5000000
41
0.5000000
0
VERTEX
8
Top
10
115.2400000
20
100.0000000
42
0.0000000
0
VERTEX
8
Top
10
115.2400000
20
102.5000000
42
0.0000000
0
SEQEND
0
INSERT
8
Top
2
UNIT_DISC
10
117.7800000
20
100.0000000
41
0.5000000
42
0.5000000
43
0.5000000
50
0.0000000
0
INSERT
8
Top
2
UNIT_DISC
10
117.7800000
20
102.5000000
41
0.5000000
42
0.5000000
43
0.5000000
50
0.0000000
0
POLYLINE
8
Top
6
CONTINUOUS
66
1
70
0
40
0.5000000
41
0.5000000
0
VERTEX
8
Top
10
117.7800000
20
100.0000000
42
0.0000000
0
VERTEX
8
Top
10
117.7800000
20
102.5000000
42
0.0000000
0
SEQEND
0
INSERT
8
Top
2
UNIT_DISC
10
120.3200000
20
100.0000000
41
0.5000000
42
0.5000000
43
0.5000000
50
0.0000000
0
INSERT
8
Top
2
UNIT_DISC
10
120.3200000
20
102.5000000
41
0.5000000
42
0.5000000
43
0.5000000
50
0.0000000
0
POLYLINE
8
Top
6
CONTINUOUS
66
1
70
0
40
0.5000000
41
0.5000000
0
VERTEX
8
Top
10
120.3200000
20
100.0000000
42
0.0000000
0
VERTEX
8
Top
10
120.3200000
20
102.5000000
42
0.0000000
0
SEQEND
0
INSERT
8
Top
2
UNIT_DISC
10
115.0000000
20
150.0000000
41
0.2500000
42
0.2500000
43
0.2500000
50
0.0000000
0
INSERT
8
Top
2
UNIT_DISC
10
115.0000000
20
148.0000000
41
0.2500000
42
0.2500000
43
0.2500000
50
0.0000000
0
POLYLINE
8
Top
6
CONTINUOUS
66
1
70
0
40
0.2500000
41
0.2500000
0
VERTEX
8
Top
10
115.0000000
20
150.0000000
42
0.0000000
0
VERTEX
8
Top
10
115.0000000
20
148.0000000
42
0.0000000
0
SEQEND
0
INSERT
8
Top
2
UNIT_DISC
10
116.0000000
20
150.0000000
41
0.2500000
42
0.2500000
43
0.2500000
50
0.0000000
0
INSERT
8
Top
2
UNIT_DISC
10
116.0000000
20
148.0000000
41
0.2500000
42
0.2500000
43
0.2500000
50
0.0000000
0
POLYLINE
8
Top
6
CONTINUOUS
66
1
70
0
40
0.2500000
41
0.2500000
0
VERTEX
8
Top
10
116.0000000
20
150.0000000
42
0.0000000
0
VERTEX
8
Top
10
116.0000000
20
148.0000000
42
0.0000000
0
SEQEND
0
INSERT
8
Top
2
UNIT_DISC
10
120.0000000
20
148.0000000
41
0.2500000
42
0.2500000
43
0.2500000
50
0.0000000
0
INSERT
8
Top
2
UNIT_DISC
10
120.0000000
20
146.0000000
41
0.2500000
42
0.2500000
43
0.2500000
50
0.0000000
0
POLYLINE
8
Top
6
CONTINUOUS
66
1
70
0
40
0.2500000
41
0.2500000
0
VERTEX
8
Top
10
120.0000000
20
148.0000000
42
0.0000000
0
VERTEX
8
Top
10
120.0000000
20
146.0000000
42
0.0000000
0
SEQEND
0
INSERT
8
Top
2
UNIT_DISC
10
120.0000000
20
150.0000000
41
0.2500000
42
0.2500000
43
0.2500000
50
0.0000000
0
INSERT
8
Top
2
UNIT_DISC
10
120.0000000
20
148.0000000
41
0.2500000
42
0.2500000
43
0.2500000
50
0.0000000
0
POLYLINE
8
Top
6
CONTINUOUS
66
1
70
0
40
0.2500000
41
0.2500000
0
VERTEX
8
Top
10
120.0000000
20
150.0000000
42
0.0000000
0
VERTEX
8
Top
10
120.0000000
20
148.0000000
42
0.0000000
0
SEQEND
0
INSERT
8
Top
2
UNIT_DISC
10
119.0000000
20
150.0000000
41
0.2500000
42
0.2500000
43
0.2500000
50
0.0000000
0
INSERT
8
Top
2
UNIT_DISC
10
119.0000000
20
148.0000000
41
0.2500000
42
0.2500000
43
0.2500000
50
0.0000000
0
POLYLINE
8
Top
6
CONTINUOUS
66
1
70
0
40
0.2500000
41
0.2500000
0
VERTEX
8
Top
10
119.0000000
20
150.0000000
42
0.0000000
0
VERTEX
8
Top
10
119.0000000
20
148.0000000
42
0.0000000
0
SEQEND
0
INSERT
8
Top
2
UNIT_DISC
10
118.0000000
20
150.0000000
41
0.2500000
42
0.2500000
43
0.2500000
50
0.0000000
0
INSERT
8
Top
2
UNIT_DISC
10
118.0000000
20
148.0000000
41
0.2500000
42
0.2500000
43
0.2500000
50
0.0000000
0
POLYLINE
8
Top
6
CONTINUOUS
66
1
70
0
40
0.2500000
41
0.2500000
0
VERTEX
8
Top
10
118.0000000
20
150.0000000
42
0.0000000
0
VERTEX
8
Top
10
118.0000000
20
148.0000000
42
0.0000000
0
SEQEND
0
INSERT
8
Top
2
UNIT_DISC
10
117.0000000
20
150.0000000
41
0.2500000
42
0.2500000
43
0.2500000
50
0.0000000
0
INSERT
8
Top
2
UNIT_DISC
10
117.0000000
20
148.0000000
41
0.2500000
42
0.2500000
43
0.2500000
50
0.0000000
0
POLYLINE
8
Top
6
CONTINUOUS
66
1
70
0
40
0.2500000
41
0.2500000
0
VERTEX
8
Top
10
117.0000000
20
150.0000000
42
0.0000000
0
VERTEX
8
Top
10
117.0000000
20
148.0000000
42
0.0000000
0
SEQEND
0
INSERT
8
Top
2
UNIT_DISC
10
121.0000000
20
150.0000000
41
0.2500000
42
0.2500000
43
0.2500000
50
0.0000000
0
INSERT
8
Top
2
UNIT_DISC
10
121.0000000
20
148.0000000
41
0.2500000
42
0.2500000
43
0.2500000
50
0.0000000
0
POLYLINE
8
Top
6
CONTINUOUS
66
1
70
0
40
0.2500000
41
0.2500000
0
VERTEX
8
Top
10
121.0000000
20
150.0000000
42
0.0000000
0
VERTEX
8
Top
10
121.0000000
20
148.0000000
42
0.0000000
0
SEQEND
0
INSERT
8
Top
2
UNIT_DISC
10
115.0000000
20
148.0000000
41
0.2500000
42
0.2500000
43
0.2500000
50
0.0000000
0
INSERT
8
Top
2
UNIT_DISC
10
115.0000000
20
147.0000000
41
0.2500000
42
0.2500000
43
0.2500000
50
0.0000000
0
POLYLINE
8
Top
6
CONTINUOUS
66
1
70
0
40
0.2500000
41
0.2500000
0
VERTEX
8
Top
10
115.0000000
20
148.0000000
42
0.0000000
0
VERTEX
8
Top
10
115.0000000
20
147.0000000
42
0.0000000
0
SEQEND
0
INSERT
8
Top
2
UNIT_DISC
10
125.4000000
20
100.0000000
41
0.5000000
42
0.5000000
43
0.5000000
50
0.0000000
0
INSERT
8
Top
2
UNIT_DISC
10
125.4000000
20
105.0000000
41
0.5000000
42
0.5000000
43
0.5000000
50
0.0000000
0
POLYLINE
8
Top
6
CONTINUOUS
66
1
70
0
40
0.5000000
41
0.5000000
0
VERTEX
8
Top
10
125.4000000
20
100.0000000
42
0.0000000
0
VERTEX
8
Top
10
125.4000000
20
105.0000000
42
0.0000000
0
SEQEND
0
INSERT
8
Top
2
UNIT_DISC
10
122.8600000
20
100.0000000
41
0.5000000
42
0.5000000
43
0.5000000
50
0.0000000
0
INSERT
8
Top
2
UNIT_DISC
10
122.8600000
20
102.5000000
41
0.5000000
42
0.5000000
43
0.5000000
50
0.0000000
0
POLYLINE
8
Top
6
CONTINUOUS
66
1
70
0
40
0.5000000
41
0.5000000
0
VERTEX
8
Top
10
122.8600000
20
100.0000000
42
0.0000000
0
VERTEX
8
Top
10
122.8600000
20
102.5000000
42
0.0000000
0
SEQEND
0
INSERT
8
Top
2
UNIT_DISC
10
127.5400000
20
100.0000000
41
0.5000000
42
0.5000000
43
0.5000000
50
0.0000000
0
INSERT
8
Top
2
UNIT_DISC
10
127.5400000
20
102.5000000
41
0.5000000
42
0.5000000
43
0.5000000
50
0.0000000
0
POLYLINE
8
Top
6
CONTINUOUS
66
1
70
0
40
0.5000000
41
0.5000000
0
VERTEX
8
Top
10
127.5400000
20
100.0000000
42
0.0000000
0
VERTEX
8
Top
10
127.5400000
20
102.5000000
42
0.0000000
0
SEQEND
0
INSERT
8
Top
2
UNIT_DISC
10
123.0000000
20
150.0000000
41
0.2500000
42
0.2500000
43
0.2500000
50
0.0000000
0
INSERT
8
Top
2
UNIT_DISC
10
123.0000000
20
148.0000000
41
0.2500000
42
0.2500000
43
0.2500000
50
0.0000000
0
POLYLINE
8
Top
6
CONTINUOUS
66
1
70
0
40
0.2500000
41
0.2500000
0
VERTEX
8
Top
10
123.0000000
20
150.0000000
42
0.0000000
0
VERTEX
8
Top
10
123.0000000
20
148.0000000
42
0.0000000
0
SEQEND
0
INSERT
8
Top
2
UNIT_DISC
10
124.0000000
20
150.0000000
41
0.2500000
42
0.2500000
43
0.2500000
50
0.0000000
0
INSERT
8
Top
2
UNIT_DISC
10
124.0000000
20
148.0000000
41
0.2500000
42
0.2500000
43
0.2500000
50
0.0000000
0
POLYLINE
8
Top
6
CONTINUOUS
66
1
70
0
40
0.2500000
41
0.2500000
0
VERTEX
8
Top
10
124.0000000
20
150.0000000
42
0.0000000
0
VERTEX
8
Top
10
124.0000000
20
148.0000000
42
0.0000000
0
SEQEND
0
INSERT
8
Top
2
UNIT_DISC
10
125.0000000
20
150.0000000
41
0.2500000
42
0.2500000
43
0.2500000
50
0.0000000
0
INSERT
8
Top
2
UNIT_DISC
10
125.0000000
20
148.0000000
41
0.2500000
42
0.2500000
43
0.2500000
50
0.0000000
0
POLYLINE
8
Top
6
CONTINUOUS
66
1
70
0
40
0.2500000
41
0.2500000
0
VERTEX
8
Top
10
125.0000000
20
150.0000000
42
0.0000000
0
VERTEX
8
Top
10
125.0000000
20
148.0000000
42
0.0000000
0
SEQEND
0
INSERT
8
Top
2
UNIT_DISC
10
126.0000000
20
150.0000000
41
0.2500000
42
0.2500000
43
0.2500000
50
0.0000000
0
INSERT
8
Top
2
UNIT_DISC
10
126.0000000
20
148.0000000
41
0.2500000
42
0.2500000
43
0.2500000
50
0.0000000
0
POLYLINE
8
Top
6
CONTINUOUS
66
1
70
0
40
0.2500000
41
0.2500000
0
VERTEX
8
Top
10
126.0000000
20
150.0000000
42
0.0000000
0
VERTEX
8
Top
10
126.0000000
20
148.0000000
42
0.0000000
0
SEQEND
0
INSERT
8
Top
2
UNIT_DISC
10
129.0000000
20
150.0000000
41
0.2500000
42
0.2500000
43
0.2500000
50
0.0000000
0
INSERT
8
Top
2
UNIT_DISC
10
129.0000000
20
148.0000000
41
0.2500000
42
0.2500000
43
0.2500000
50
0.0000000
0
POLYLINE
8
Top
6
CONTINUOUS
66
1
70
0
40
0.2500000
41
0.2500000
0
VERTEX
8
Top
10
129.0000000
20
150.0000000
42
0.0000000
0
VERTEX
8
Top
10
129.0000000
20
148.0000000
42
0.0000000
0
SEQEND
0
INSERT
8
Top
2
UNIT_DISC
10
128.0000000
20
150.0000000
41
0.2500000
42
0.2500000
43
0.2500000
50
0.0000000
0
INSERT
8
Top
2
UNIT_DISC
10
128.0000000
20
148.0000000
41
0.2500000
42
0.2500000
43
0.2500000
50
0.0000000
0
POLYLINE
8
Top
6
CONTINUOUS
66
1
70
0
40
0.2500000
41
0.2500000
0
VERTEX
8
Top
10
128.0000000
20
150.0000000
42
0.0000000
0
VERTEX
8
Top
10
128.0000000
20
148.0000000
42
0.0000000
0
SEQEND
0
INSERT
8
Top
2
UNIT_DISC
10
127.0000000
20
150.0000000
41
0.2500000
42
0.2500000
43
0.2500000
50
0.0000000
0
INSERT
8
Top
2
UNIT_DISC
10
127.0000000
20
148.0000000
41
0.2500000
42
0.2500000
43
0.2500000
50
0.0000000
0
POLYLINE
8
Top
6
CONTINUOUS
66
1
70
0
40
0.2500000
41
0.2500000
0
VERTEX
8
Top
10
127.0000000
20
150.0000000
42
0.0000000
0
VERTEX
8
Top
10
127.0000000
20
148.0000000
42
0.0000000
0
SEQEND
0
INSERT
8
Top
2
UNIT_DISC
10
125.0000000
20
148.0000000
41
0.2500000
42
0.2500000
43
0.2500000
50
0.0000000
0
INSERT
8
Top
2
UNIT_DISC
10
125.0000000
20
147.0000000
41
0.2500000
42
0.2500000
43
0.2500000
50
0.0000000
0
POLYLINE
8
Top
6
CONTINUOUS
66
1
70
0
40
0.2500000
41
0.2500000
0
VERTEX
8
Top
10
125.0000000
20
148.0000000
42
0.0000000
0
VERTEX
8
Top
10
125.0000000
20
147.0000000
42
0.0000000
0
SEQEND
0
INSERT
8
Top
2
UNIT_DISC
10
135.1600000
20
100.0000000
41
0.5000000
42
0.5000000
43
0.5000000
50
0.0000000
0
INSERT
8
Top
2
UNIT_DISC
10
135.1600000
20
102.5000000
41
0.5000000
42
0.5000000
43
0.5000000
50
0.0000000
0
POLYLINE
8
Top
6
CONTINUOUS
66
1
70
0
40
0.5000000
41
0.5000000
0
VERTEX
8
Top
10
135.1600000
20
100.0000000
42
0.0000000
0
VERTEX
8
Top
10
135.1600000
20
102.5000000
42
0.0000000
0
SEQEND
0
INSERT
8
Top
2
UNIT_DISC
10
132.6200000
20
100.0000000
41
0.5000000
42
0.5000000
43
0.5000000
50
0.0000000
0
INSERT
8
Top
2
UNIT_DISC
10
132.6200000
20
102.5000000
41
0.5000000
42
0.5000000
43
0.5000000
50
0.0000000
0
POLYLINE
8
Top
6
CONTINUOUS
66
1
70
0
40
0.5000000
41
0.5000000
0
VERTEX
8
Top
10
132.6200000
20
100.0000000
42
0.0000000
0
VERTEX
8
Top
10
132.6200000
20
102.5000000
42
0.0000000
0
SEQEND
0
INSERT
8
Top
2
UNIT_DISC
10
130.0800000
20
100.0000000
41
0.5000000
42
0.5000000
43
0.5000000
50
0.0000000
0
INSERT
8
Top
2
UNIT_DISC
10
130.0800000
20
102.5000000
41
0.5000000
42
0.5000000
43
0.5000000
50
0.0000000
0
POLYLINE
8
Top
6
CONTINUOUS
66
1
70
0
40
0.5000000
41
0.5000000
0
VERTEX
8
Top
10
130.0800000
20
100.0000000
42
0.0000000
0
VERTEX
8
Top
10
130.0800000
20
102.5000000
42
0.0000000
0
SEQEND
0
INSERT
8
Top
2
UNIT_DISC
10
130.0000000
20
148.0000000
41
0.2500000
42
0.2500000
43
0.2500000
50
0.0000000
0
INSERT
8
Top
2
UNIT_DISC
10
130.0000000
20
146.0000000
41
0.2500000
42
0.2500000
43
0.2500000
50
0.0000000
0
POLYLINE
8
Top
6
CONTINUOUS
66
1
70
0
40
0.2500000
41
0.2500000
0
VERTEX
8
Top
10
130.0000000
20
148.0000000
42
0.0000000
0
VERTEX
8
Top
10
130.0000000
20
146.0000000
42
0.0000000
0
SEQEND
0
INSERT
8
Top
2
UNIT_DISC
10
130.0000000
20
150.0000000
41
0.2500000
42
0.2500000
43
0.2500000
50
0.0000000
0
INSERT
8
Top
2
UNIT_DISC
10
130.0000000
20
148.0000000
41
0.2500000
42
0.2500000
43
0.2500000
50
0.0000000
0
POLYLINE
8
Top
6
CONTINUOUS
66
1
70
0
40
0.2500000
41
0.2500000
0
VERTEX
8
Top
10
130.0000000
20
150.0000000
42
0.0000000
0
VERTEX
8
Top
10
130.0000000
20
148.0000000
42
0.0000000
0
SEQEND
0
INSERT
8
Top
2
UNIT_DISC
10
131.0000000
20
150.0000000
41
0.2500000
42
0.2500000
43
0.2500000
50
0.0000000
0
INSERT
8
Top
2
UNIT_DISC
10
131.0000000
20
148.0000000
41
0.2500000
42
0.2500000
43
0.2500000
50
0.0000000
0
POLYLINE
8
Top
6
CONTINUOUS
66
1
70
0
40
0.2500000
41
0.2500000
0
VERTEX
8
Top
10
131.0000000
20
150.0000000
42
0.0000000
0
VERTEX
8
Top
10
131.0000000
20
148.0000000
42
0.0000000
0
SEQEND
0
INSERT
8
Top
2
UNIT_DISC
10
132.0000000
20
150.0000000
41
0.2500000
42
0.2500000
43
0.2500000
50
0.0000000
0
INSERT
8
Top
2
UNIT_DISC
10
132.0000000
20
148.0000000
41
0.2500000
42
0.2500000
43
0.2500000
50
0.0000000
0
POLYLINE
8
Top
6
CONTINUOUS
66
1
70
0
40
0.2500000
41
0.2500000
0
VERTEX
8
Top
10
132.0000000
20
150.0000000
42
0.0000000
0
VERTEX
8
Top
10
132.0000000
20
148.0000000
42
0.0000000
0
SEQEND
0
INSERT
8
Top
2
UNIT_DISC
10
133.0000000
20
150.0000000
41
0.2500000
42
0.2500000
43
0.2500000
50
0.0000000
0
INSERT
8
Top
2
UNIT_DISC
10
133.0000000
20
148.0000000
41
0.2500000
42
0.2500000
43
0.2500000
50
0.0000000
0
POLYLINE
8
Top
6
CONTINUOUS
66
1
70
0
40
0.2500000
41
0.2500000
0
VERTEX
8
Top
10
133.0000000
20
150.0000000
42
0.0000000
0
VERTEX
8
Top
10
133.0000000
20
148.0000000
42
0.0000000
0
SEQEND
0
INSERT
8
Top
2
UNIT_DISC
10
134.0000000
20
150.0000000
41
0.2500000
42
0.2500000
43
0.2500000
50
0.0000000
0
INSERT
8
Top
2
UNIT_DISC
10
134.0000000
20
148.0000000
41
0.2500000
42
0.2500000
43
0.2500000
50
0.0000000
0
POLYLINE
8
Top
6
CONTINUOUS
66
1
70
0
40
0.2500000
41
0.2500000
0
VERTEX
8
Top
10
134.0000000
20
150.0000000
42
0.0000000
0
VERTEX
8
Top
10
134.0000000
20
148.0000000
42
0.0000000
0
SEQEND
0
INSERT
8
Top
2
UNIT_DISC
10
135.0000000
20
150.0000000
41
0.2500000
42
0.2500000
43
0.2500000
50
0.0000000
0
INSERT
8
Top
2
UNIT_DISC
10
135.0000000
20
148.0000000
41
0.2500000
42
0.2500000
43
0.2500000
50
0.0000000
0
POLYLINE
8
Top
6
CONTINUOUS
66
1
70
0
40
0.2500000
41
0.2500000
0
VERTEX
8
Top
10
135.0000000
20
150.0000000
42
0.0000000
0
VERTEX
8
Top
10
135.0000000
20
148.0000000
42
0.0000000
0
SEQEND
0
INSERT
8
Top
2
UNIT_DISC
10
136.0000000
20
150.0000000
41
0.2500000
42
0.2500000
43
0.2500000
50
0.0000000
0
INSERT
8
Top
2
UNIT_DISC
10
136.0000000
20
148.0000000
41
0.2500000
42
0.2500000
43
0.2500000
50
0.0000000
0
POLYLINE
8
Top
6
CONTINUOUS
66
1
70
0
40
0.2500000
41
0.2500000
0
VERTEX
8
Top
10
136.0000000
20
150.0000000
42
0.0000000
0
VERTEX
8
Top
10
136.0000000
20
148.0000000
42
0.0000000
0
SEQEND
0
INSERT
8
Top
2
UNIT_DISC
10
137.0000000
20
150.0000000
41
0.2500000
42
0.2500000
43
0.2500000
50
0.0000000
0
INSERT
8
Top
2
UNIT_DISC
10
137.0000000
20
148.0000000
41
0.2500000
42
0.2500000
43
0.2500000
50
0.0000000
0
POLYLINE
8
Top
6
CONTINUOUS
66
1
70
0
40
0.2500000
41
0.2500000
0
VERTEX
8
Top
10
137.0000000
20
150.0000000
42
0.0000000
0
VERTEX
8
Top
10
137.0000000
20
148.0000000
42
0.0000000
0
SEQEND
0
INSERT
8
Top
2
UNIT_DISC
10
135.0000000
20
148.0000000
41
0.2500000
42
0.2500000
43
0.2500000
50
0.0000000
0
INSERT
8
Top
2
UNIT_DISC
10
135.0000000
20
147.0000000
41
0.2500000
42
0.2500000
43
0.2500000
50
0.0000000
0
POLYLINE
8
Top
6
CONTINUOUS
66
1
70
0
40
0.2500000
41
0.2500000
0
VERTEX
8
Top
10
135.0000000
20
148.0000000
42
0.0000000
0
VERTEX
8
Top
10
135.0000000
20
147.0000000
42
0.0000000
0
SEQEND
0
INSERT
8
Top
2
UNIT_DISC
10
142.7800000
20
100.0000000
41
0.5000000
42
0.5000000
43
0.5000000
50
0.0000000
0
INSERT
8
Top
2
UNIT_DISC
10
142.7800000
20
102.5000000
41
0.5000000
42
0.5000000
43
0.5000000
50
0.0000000
0
POLYLINE
8
Top
6
CONTINUOUS
66
1
70
0
40
0.5000000
41
0.5000000
0
VERTEX
8
Top
10
142.7800000
20
100.0000000
42
0.0000000
0
VERTEX
8
Top
10
142.7800000
20
102.5000000
42
0.0000000
0
SEQEND
0
INSERT
8
Top
2
UNIT_DISC
10
140.2400000
20
100.0000000
41
0.5000000
42
0.5000000
43
0.5000000
50
0.0000000
0
INSERT
8
Top
2
UNIT_DISC
10
140.2400000
20
102.5000000
41
0.5000000
42
0.5000000
43
0.5000000
50
0.0000000
0
POLYLINE
8
Top
6
CONTINUOUS
66
1
70
0
40
0.5000000
41
0.5000000
0
VERTEX
8
Top
10
140.2400000
20
100.0000000
42
0.0000000
0
VERTEX
8
Top
10
140.2400000
20
102.5000000
42
0.0000000
0
SEQEND
0
INSERT
8
Top
2
UNIT_DISC
10
137.7000000
20
100.0000000
41
0.5000000
42
0.5000000
43
0.5000000
50
0.0000000
0
INSERT
8
Top
2
UNIT_DISC
10
137.7000000
20
104.0000000
41
0.5000000
42
0.5000000
43
0.5000000
50
0.0000000
0
POLYLINE
8
Top
6
CONTINUOUS
66
1
70
0
40
0.5000000
41
0.5000000
0
VERTEX
8
Top
10
137.7000000
20
100.0000000
42
0.0000000
0
VERTEX
8
Top
10
137.7000000
20
104.0000000
42
0.0000000
0
SEQEND
0
INSERT
8
Top
2
UNIT_DISC
10
140.0000000
20
148.0000000
41
0.2500000
42
0.2500000
43
0.2500000
50
0.0000000
0
INSERT
8
Top
2
UNIT_DISC
10
140.0000000
20
146.0000000
41
0.2500000
42
0.2500000
43
0.2500000
50
0.0000000
0
POLYLINE
8
Top
6
CONTINUOUS
66
1
70
0
40
0.2500000
41
0.2500000
0
VERTEX
8
Top
10
140.0000000
20
148.0000000
42
0.0000000
0
VERTEX
8
Top
10
140.0000000
20
146.0000000
42
0.0000000
0
SEQEND
0
INSERT
8
Top
2
UNIT_DISC
10
140.0000000
20
150.0000000
41
0.2500000
42
0.2500000
43
0.2500000
50
0.0000000
0
INSERT
8
Top
2
UNIT_DISC
10
140.0000000
20
148.0000000
41
0.2500000
42
0.2500000
43
0.2500000
50
0.0000000
0
POLYLINE
8
Top
6
CONTINUOUS
66
1
70
0
40
0.2500000
41
0.2500000
0
VERTEX
8
Top
10
140.0000000
20
150.0000000
42
0.0000000
0
VERTEX
8
Top
10
140.0000000
20
148.0000000
42
0.0000000
0
SEQEND
0
INSERT
8
Top
2
UNIT_DISC
10
139.0000000
20
150.0000000
41
0.2500000
42
0.2500000
43
0.2500000
50
0.0000000
0
INSERT
8
Top
2
UNIT_DISC
10
139.0000000
20
148.0000000
41
0.2500000
42
0.2500000
43
0.2500000
50
0.0000000
0
POLYLINE
8
Top
6
CONTINUOUS
66
1
70
0
40
0.2500000
41
0.2500000
0
VERTEX
8
Top
10
139.0000000
20
150.0000000
42
0.0000000
0
VERTEX
8
Top
10
139.0000000
20
148.0000000
42
0.0000000
0
SEQEND
0
INSERT
8
Top
2
UNIT_DISC
10
138.0000000
20
150.0000000
41
0.2500000
42
0.2500000
43
0.2500000
50
0.0000000
0
INSERT
8
Top
2
UNIT_DISC
10
138.0000000
20
148.0000000
41
0.2500000
42
0.2500000
43
0.2500000
50
0.0000000
0
POLYLINE
8
Top
6
CONTINUOUS
66
1
70
0
40
0.2500000
41
0.2500000
0
VERTEX
8
Top
10
138.0000000
20
150.0000000
42
0.0000000
0
VERTEX
8
Top
10
138.0000000
20
148.0000000
42
0.0000000
0
SEQEND
0
INSERT
8
Top
2
UNIT_DISC
10
141.0000000
20
150.0000000
41
0.2500000
42
0.2500000
43
0.2500000
50
0.0000000
0
INSERT
8
Top
2
UNIT_DISC
10
141.0000000
20
148.0000000
41
0.2500000
42
0.2500000
43
0.2500000
50
0.0000000
0
POLYLINE
8
Top
6
CONTINUOUS
66
1
70
0
40
0.2500000
41
0.2500000
0
VERTEX
8
Top
10
141.0000000
20
150.0000000
42
0.0000000
0
VERTEX
8
Top
10
141.0000000
20
148.0000000
42
0.0000000
0
SEQEND
0
INSERT
8
Top
2
UNIT_DISC
10
142.0000000
20
150.0000000
41
0.2500000
42
0.2500000
43
0.2500000
50
0.0000000
0
INSERT
8
Top
2
UNIT_DISC
10
142.0000000
20
148.0000000
41
0.2500000
42
0.2500000
43
0.2500000
50
0.0000000
0
POLYLINE
8
Top
6
CONTINUOUS
66
1
70
0
40
0.2500000
41
0.2500000
0
VERTEX
8
Top
10
142.0000000
20
150.0000000
42
0.0000000
0
VERTEX
8
Top
10
142.0000000
20
148.0000000
42
0.0000000
0
SEQEND
0
INSERT
8
Top
2
UNIT_DISC
10
143.0000000
20
150.0000000
41
0.2500000
42
0.2500000
43
0.2500000
50
0.0000000
0
INSERT
8
Top
2
UNIT_DISC
10
143.0000000
20
148.0000000
41
0.2500000
42
0.2500000
43
0.2500000
50
0.0000000
0
POLYLINE
8
Top
6
CONTINUOUS
66
1
70
0
40
0.2500000
41
0.2500000
0
VERTEX
8
Top
10
143.0000000
20
150.0000000
42
0.0000000
0
VERTEX
8
Top
10
143.0000000
20
148.0000000
42
0.0000000
0
SEQEND
0
INSERT
8
Top
2
UNIT_DISC
10
144.0000000
20
150.0000000
41
0.2500000
42
0.2500000
43
0.2500000
50
0.0000000
0
INSERT
8
Top
2
UNIT_DISC
10
144.0000000
20
148.0000000
41
0.2500000
42
0.2500000
43
0.2500000
50
0.0000000
0
POLYLINE
8
Top
6
CONTINUOUS
66
1
70
0
40
0.2500000
41
0.2500000
0
VERTEX
8
Top
10
144.0000000
20
150.0000000
42
0.0000000
0
VERTEX
8
Top
10
144.0000000
20
148.0000000
42
0.0000000
0
SEQEND
0
INSERT
8
Top
2
UNIT_DISC
10
150.8000000
20
100.0000000
41
0.5000000
42
0.5000000
43
0.5000000
50
0.0000000
0
INSERT
8
Top
2
UNIT_DISC
10
150.8000000
20
105.0000000
41
0.5000000
42
0.5000000
43
0.5000000
50
0.0000000
0
POLYLINE
8
Top
6
CONTINUOUS
66
1
70
0
40
0.5000000
41
0.5000000
0
VERTEX
8
Top
10
150.8000000
20
100.0000000
42
0.0000000
0
VERTEX
8
Top
10
150.8000000
20
105.0000000
42
0.0000000
0
SEQEND
0
INSERT
8
Top
2
UNIT_DISC
10
147.8600000
20
100.0000000
41
0.5000000
42
0.5000000
43
0.5000000
50
0.0000000
0
INSERT
8
Top
2
UNIT_DISC
10
147.8600000
20
102.5000000
41
0.5000000
42
0.5000000
43
0.5000000
50
0.0000000
0
POLYLINE
8
Top
6
CONTINUOUS
66
1
70
0
40
0.5000000
41
0.5000000
0
VERTEX
8
Top
10
147.8600000
20
100.0000000
42
0.0000000
0
VERTEX
8
Top
10
147.8600000
20
102.5000000
42
0.0000000
0
SEQEND
0
INSERT
8
Top
2
UNIT_DISC
10
145.3200000
20
100.0000000
41
0.5000000
42
0.5000000
43
0.5000000
50
0.0000000
0
INSERT
8
Top
2
UNIT_DISC
10
145.3200000
20
102.5000000
41
0.5000000
42
0.5000000
43
0.5000000
50
0.0000000
0
POLYLINE
8
Top
6
CONTINUOUS
66
1
70
0
40
0.5000000
41
0.5000000
0
VERTEX
8
Top
10
145.3200000
20
100.0000000
42
0.0000000
0
VERTEX
8
Top
10
145.3200000
20
102.5000000
42
0.0000000
0
SEQEND
0
INSERT
8
Top
2
UNIT_DISC
10
145.0000000
20
150.0000000
41
0.2500000
42
0.2500000
43
0.2500000
50
0.0000000
0
INSERT
8
Top
2
UNIT_DISC
10
145.0000000
20
148.0000000
41
0.2500000
42
0.2500000
43
0.2500000
50
0.0000000
0
POLYLINE
8
Top
6
CONTINUOUS
66
1
70
0
40
0.2500000
41
0.2500000
0
VERTEX
8
Top
10
145.0000000
20
150.0000000
42
0.0000000
0
VERTEX
8
Top
10
145.0000000
20
148.0000000
42
0.0000000
0
SEQEND
0
INSERT
8
Top
2
UNIT_DISC
10
146.0000000
20
150.0000000
41
0.2500000
42
0.2500000
43
0.2500000
50
0.0000000
0
INSERT
8
Top
2
UNIT_DISC
10
146.0000000
20
148.0000000
41
0.2500000
42
0.2500000
43
0.2500000
50
0.0000000
0
POLYLINE
8
Top
6
CONTINUOUS
66
1
70
0
40
0.2500000
41
0.2500000
0
VERTEX
8
Top
10
146.0000000
20
150.0000000
42
0.0000000
0
VERTEX
8
Top
10
146.0000000
20
148.0000000
42
0.0000000
0
SEQEND
0
INSERT
8
Top
2
UNIT_DISC
10
150.0000000
20
148.0000000
41
0.2500000
42
0.2500000
43
0.2500000
50
0.0000000
0
INSERT
8
Top
2
UNIT_DISC
10
150.0000000
20
146.0000000
41
0.2500000
42
0.2500000
43
0.2500000
50
0.0000000
0
POLYLINE
8
Top
6
CONTINUOUS
66
1
70
0
40
0.2500000
41
0.2500000
0
VERTEX
8
Top
10
150.0000000
20
148.0000000
42
0.0000000
0
VERTEX
8
Top
10
150.0000000
20
146.0000000
42
0.0000000
0
SEQEND
0
INSERT
8
Top
2
UNIT_DISC
10
150.0000000
20
150.0000000
41
0.2500000
42
0.2500000
43
0.2500000
50
0.0000000
0
INSERT
8
Top
2
UNIT_DISC
10
150.0000000
20
148.0000000
41
0.2500000
42
0.2500000
43
0.2500000
50
0.0000000
0
POLYLINE
8
Top
6
CONTINUOUS
66
1
70
0
40
0.2500000
41
0.2500000
0
VERTEX
8
Top
10
150.0000000
20
150.0000000
42
0.0000000
0
VERTEX
8
Top
10
150.0000000
20
148.0000000
42
0.0000000
0
SEQEND
0
INSERT
8
Top
2
UNIT_DISC
10
149.0000000
20
150.0000000
41
0.2500000
42
0.2500000
43
0.2500000
50
0.0000000
0
INSERT
8
Top
2
UNIT_DISC
10
149.0000000
20
148.0000000
41
0.2500000
42
0.2500000
43
0.2500000
50
0.0000000
0
POLYLINE
8
Top
6
CONTINUOUS
66
1
70
0
40
0.2500000
41
0.2500000
0
VERTEX
8
Top
10
149.0000000
20
150.0000000
42
0.0000000
0
VERTEX
8
Top
10
149.0000000
20
148.0000000
42
0.0000000
0
SEQEND
0
INSERT
8
Top
2
UNIT_DISC
10
148.0000000
20
150.0000000
41
0.2500000
42
0.2500000
43
0.2500000
50
0.0000000
0
INSERT
8
Top
2
UNIT_DISC
10
148.0000000
20
148.0000000
41
0.2500000
42
0.2500000
43
0.2500000
50
0.0000000
0
POLYLINE
8
Top
6
CONTINUOUS
66
1
70
0
40
0.2500000
41
0.2500000
0
VERTEX
8
Top
10
148.0000000
20
150.0000000
42
0.0000000
0
VERTEX
8
Top
10
148.0000000
20
148.0000000
42
0.0000000
0
SEQEND
0
INSERT
8
Top
2
UNIT_DISC
10
147.0000000
20
150.0000000
41
0.2500000
42
0.2500000
43
0.2500000
50
0.0000000
0
INSERT
8
Top
2
UNIT_DISC
10
147.0000000
20
148.0000000
41
0.2500000
42
0.2500000
43
0.2500000
50
0.0000000
0
POLYLINE
8
Top
6
CONTINUOUS
66
1
70
0
40
0.2500000
41
0.2500000
0
VERTEX
8
Top
10
147.0000000
20
150.0000000
42
0.0000000
0
VERTEX
8
Top
10
147.0000000
20
148.0000000
42
0.0000000
0
SEQEND
0
INSERT
8
Top
2
UNIT_DISC
10
151.0000000
20
150.0000000
41
0.2500000
42
0.2500000
43
0.2500000
50
0.0000000
0
INSERT
8
Top
2
UNIT_DISC
10
151.0000000
20
148.0000000
41
0.2500000
42
0.2500000
43
0.2500000
50
0.0000000
0
POLYLINE
8
Top
6
CONTINUOUS
66
1
70
0
40
0.2500000
41
0.2500000
0
VERTEX
8
Top
10
151.0000000
20
150.0000000
42
0.0000000
0
VERTEX
8
Top
10
151.0000000
20
148.0000000
42
0.0000000
0
SEQEND
0
INSERT
8
Top
2
UNIT_DISC
10
152.0000000
20
150.0000000
41
0.2500000
42
0.2500000
43
0.2500000
50
0.0000000
0
INSERT
8
Top
2
UNIT_DISC
10
152.0000000
20
148.0000000
41
0.2500000
42
0.2500000
43
0.2500000
50
0.0000000
0
POLYLINE
8
Top
6
CONTINUOUS
66
1
70
0
40
0.2500000
41
0.2500000
0
VERTEX
8
Top
10
152.0000000
20
150.0000000
42
0.0000000
0
VERTEX
8
Top
10
152.0000000
20
148.0000000
42
0.0000000
0
SEQEND
0
INSERT
8
Top
2
UNIT_DISC
10
145.0000000
20
148.0000000
41
0.2500000
42
0.2500000
43
0.2500000
50
0.0000000
0
INSERT
8
Top
2
UNIT_DISC
10
145.0000000
20
147.0000000
41
0.2500000
42
0.2500000
43
0.2500000
50
0.0000000
0
POLYLINE
8
Top
6
CONTINUOUS
66
1
70
0
40
0.2500000
41
0.2500000
0
VERTEX
8
Top
10
145.0000000
20
148.0000000
42
0.0000000
0
VERTEX
8
Top
10
145.0000000
20
147.0000000
42
0.0000000
0
SEQEND
0
INSERT
8
Top
2
UNIT_DISC
10
153.5400000
20
100.0000000
41
0.5000000
42
0.5000000
43
0.5000000
50
0.0000000
0
INSERT
8
Top
2
UNIT_DISC
10
153.5400000
20
102.5000000
41
0.5000000
42
0.5000000
43
0.5000000
50
0.0000000
0
POLYLINE
8
Top
6
CONTINUOUS
66
1
70
0
40
0.5000000
41
0.5000000
0
VERTEX
8
Top
10
153.5400000
20
100.0000000
42
0.0000000
0
VERTEX
8
Top
10
153.5400000
20
102.5000000
42
0.0000000
0
SEQEND
0
INSERT
8
Top
2
UNIT_DISC
10
156.0800000
20
100.0000000
41
0.5000000
42
0.5000000
43
0.5000000
50
0.0000000
0
INSERT
8
Top
2
UNIT_DISC
10
156.0800000
20
102.5000000
41
0.5000000
42
0.5000000
43
0.5000000
50
0.0000000
0
POLYLINE
8
Top
6
CONTINUOUS
66
1
70
0
40
0.5000000
41
0.5000000
0
VERTEX
8
Top
10
156.0800000
20
100.0000000
42
0.0000000
0
VERTEX
8
Top
10
156.0800000
20
102.5000000
42
0.0000000
0
SEQEND
0
INSERT
8
Top
2
UNIT_DISC
10
158.6200000
20
100.0000000
41
0.5000000
42
0.5000000
43
0.5000000
50
0.0000000
0
INSERT
8
Top
2
UNIT_DISC
10
158.6200000
20
102.5000000
41
0.5000000
42
0.5000000
43
0.5000000
50
0.0000000
0
POLYLINE
8
Top
6
CONTINUOUS
66
1
70
0
40
0.5000000
41
0.5000000
0
VERTEX
8
Top
10
158.6200000
20
100.0000000
42
0.0000000
0
VERTEX
8
Top
10
158.6200000
20
102.5000000
42
0.0000000
0
SEQEND
0
INSERT
8
Top
2
UNIT_DISC
10
153.0000000
20
150.0000000
41
0.2500000
42
0.2500000
43
0.2500000
50
0.0000000
0
INSERT
8
Top
2
UNIT_DISC
10
153.0000000
20
148.0000000
41
0.2500000
42
0.2500000
43
0.2500000
50
0.0000000
0
POLYLINE
8
Top
6
CONTINUOUS
66
1
70
0
40
0.2500000
41
0.2500000
0
VERTEX
8
Top
10
153.0000000
20
150.0000000
42
0.0000000
0
VERTEX
8
Top
10
153.0000000
20
148.0000000
42
0.0000000
0
SEQEND
0
INSERT
8
Top
2
UNIT_DISC
10
154.0000000
20
150.0000000
41
0.2500000
42
0.2500000
43
0.2500000
50
0.0000000
0
INSERT
8
Top
2
UNIT_DISC
10
154.0000000
20
148.0000000
41
0.2500000
42
0.2500000
43
0.2500000
50
0.0000000
0
POLYLINE
8
Top
6
CONTINUOUS
66
1
70
0
40
0.2500000
41
0.2500000
0
VERTEX
8
Top
10
154.0000000
20
150.0000000
42
0.0000000
0
VERTEX
8
Top
10
154.0000000
20
148.0000000
42
0.0000000
0
SEQEND
0
INSERT
8
Top
2
UNIT_DISC
10
155.0000000
20
150.0000000
41
0.2500000
42
0.2500000
43
0.2500000
50
0.0000000
0
INSERT
8
Top
2
UNIT_DISC
10
155.0000000
20
148.0000000
41
0.2500000
42
0.2500000
43
0.2500000
50
0.0000000
0
POLYLINE
8
Top
6
CONTINUOUS
66
1
70
0
40
0.2500000
41
0.2500000
0
VERTEX
8
Top
10
155.0000000
20
150.0000000
42
0.0000000
0
VERTEX
8
Top
10
155.0000000
20
148.0000000
42
0.0000000
0
SEQEND
0
INSERT
8
Top
2
UNIT_DISC
10
156.0000000
20
150.0000000
41
0.2500000
42
0.2500000
43
0.2500000
50
0.0000000
0
INSERT
8
Top
2
UNIT_DISC
10
156.0000000
20
148.0000000
41
0.2500000
42
0.2500000
43
0.2500000
50
0.0000000
0
POLYLINE
8
Top
6
CONTINUOUS
66
1
70
0
40
0.2500000
41
0.2500000
0
VERTEX
8
Top
10
156.0000000
20
150.0000000
42
0.0000000
0
VERTEX
8
Top
10
156.0000000
20
148.0000000
42
0.0000000
0
SEQEND
0
INSERT
8
Top
2
UNIT_DISC
10
159.0000000
20
150.0000000
41
0.2500000
42
0.2500000
43
0.2500000
50
0.0000000
0
INSERT
8
Top
2
UNIT_DISC
10
159.0000000
20
148.0000000
41
0.2500000
42
0.2500000
43
0.2500000
50
0.0000000
0
POLYLINE
8
Top
6
CONTINUOUS
66
1
70
0
40
0.2500000
41
0.2500000
0
VERTEX
8
Top
10
159.0000000
20
150.0000000
42
0.0000000
0
VERTEX
8
Top
10
159.0000000
20
148.0000000
42
0.0000000
0
SEQEND
0
INSERT
8
Top
2
UNIT_DISC
10
158.0000000
20
150.0000000
41
0.2500000
42
0.2500000
43
0.2500000
50
0.0000000
0
INSERT
8
Top
2
UNIT_DISC
10
158.0000000
20
148.0000000
41
0.2500000
42
0.2500000
43
0.2500000
50
0.0000000
0
POLYLINE
8
Top
6
CONTINUOUS
66
1
70
0
40
0.2500000
41
0.2500000
0
VERTEX
8
Top
10
158.0000000
20
150.0000000
42
0.0000000
0
VERTEX
8
Top
10
158.0000000
20
148.0000000
42
0.0000000
0
SEQEND
0
INSERT
8
Top
2
UNIT_DISC
10
157.0000000
20
150.0000000
41
0.2500000
42
0.2500000
43
0.2500000
50
0.0000000
0
INSERT
8
Top
2
UNIT_DISC
10
157.0000000
20
148.0000000
41
0.2500000
42
0.2500000
43
0.2500000
50
0.0000000
0
POLYLINE
8
Top
6
CONTINUOUS
66
1
70
0
40
0.2500000
41
0.2500000
0
VERTEX
8
Top
10
157.0000000
20
150.0000000
42
0.0000000
0
VERTEX
8
Top
10
157.0000000
20
148.0000000
42
0.0000000
0
SEQEND
0
INSERT
8
Top
2
UNIT_DISC
10
155.0000000
20
148.0000000
41
0.2500000
42
0.2500000
43
0.2500000
50
0.0000000
0
INSERT
8
Top
2
UNIT_DISC
10
155.0000000
20
147.0000000
41
0.2500000
42
0.2500000
43
0.2500000
50
0.0000000
0
POLYLINE
8
Top
6
CONTINUOUS
66
1
70
0
40
0.2500000
41
0.2500000
0
VERTEX
8
Top
10
155.0000000
20
148.0000000
42
0.0000000
0
VERTEX
8
Top
10
155.0000000
20
147.0000000
42
0.0000000
0
SEQEND
0
INSERT
8
Top
2
UNIT_DISC
10
163.7000000
20
100.0000000
41
0.5000000
42
0.5000000
43
0.5000000
50
0.0000000
0
INSERT
8
Top
2
UNIT_DISC
10
163.7000000
20
104.0000000
41
0.5000000
42
0.5000000
43
0.5000000
50
0.0000000
0
POLYLINE
8
Top
6
CONTINUOUS
66
1
70
0
40
0.5000000
41
0.5000000
0
VERTEX
8
Top
10
163.7000000
20
100.0000000
42
0.0000000
0
VERTEX
8
Top
10
163.7000000
20
104.0000000
42
0.0000000
0
SEQEND
0
INSERT
8
Top
2
UNIT_DISC
10
161.1600000
20
100.0000000
41
0.5000000
42
0.5000000
43
0.5000000
50
0.0000000
0
INSERT
8
Top
2
UNIT_DISC
10
161.1600000
20
102.5000000
41
0.5000000
42
0.5000000
43
0.5000000
50
0.0000000
0
POLYLINE
8
Top
6
CONTINUOUS
66
1
70
0
40
0.5000000
41
0.5000000
0
VERTEX
8
Top
10
161.1600000
20
100.0000000
42
0.0000000
0
VERTEX
8
Top
10
161.1600000
20
102.5000000
42
0.0000000
0
SEQEND
0
INSERT
8
Top
2
UNIT_DISC
10
166.2400000
20
100.0000000
41
0.5000000
42
0.5000000
43
0.5000000
50
0.0000000
0
INSERT
8
Top
2
UNIT_DISC
10
166.2400000
20
102.5000000
41
0.5000000
42
0.5000000
43
0.5000000
50
0.0000000
0
POLYLINE
8
Top
6
CONTINUOUS
66
1
70
0
40
0.5000000
41
0.5000000
0
VERTEX
8
Top
10
166.2400000
20
100.0000000
42
0.0000000
0
VERTEX
8
Top
10
166.2400000
20
102.5000000
42
0.0000000
0
SEQEND
0
INSERT
8
Top
2
UNIT_DISC
10
161.0000000
20
150.0000000
41
0.2500000
42
0.2500000
43
0.2500000
50
0.0000000
0
INSERT
8
Top
2
UNIT_DISC
10
161.0000000
20
148.0000000
41
0.2500000
42
0.2500000
43
0.2500000
50
0.0000000
0
POLYLINE
8
Top
6
CONTINUOUS
66
1
70
0
40
0.2500000
41
0.2500000
0
VERTEX
8
Top
10
161.0000000
20
150.0000000
42
0.0000000
0
VERTEX
8
Top
10
161.0000000
20
148.0000000
42
0.0000000
0
SEQEND
0
INSERT
8
Top
2
UNIT_DISC
10
163.0000000
20
150.0000000
41
0.2500000
42
0.2500000
43
0.2500000
50
0.0000000
0
INSERT
8
Top
2
UNIT_DISC
10
163.0000000
20
148.0000000
41
0.2500000
42
0.2500000
43
0.2500000
50
0.0000000
0
POLYLINE
8
Top
6
CONTINUOUS
66
1
70
0
40
0.2500000
41
0.2500000
0
VERTEX
8
Top
10
163.0000000
20
150.0000000
42
0.0000000
0
VERTEX
8
Top
10
163.0000000
20
148.0000000
42
0.0000000
0
SEQEND
0
INSERT
8
Top
2
UNIT_DISC
10
164.0000000
20
150.0000000
41
0.2500000
42
0.2500000
43
0.2500000
50
0.0000000
0
INSERT
8
Top
2
UNIT_DISC
10
164.0000000
20
148.0000000
41
0.2500000
42
0.2500000
43
0.2500000
50
0.0000000
0
POLYLINE
8
Top
6
CONTINUOUS
66
1
70
0
40
0.2500000
41
0.2500000
0
VERTEX
8
Top
10
164.0000000
20
150.0000000
42
0.0000000
0
VERTEX
8
Top
10
164.0000000
20
148.0000000
42
0.0000000
0
SEQEND
0
INSERT
8
Top
2
UNIT_DISC
10
165.0000000
20
150.0000000
41
0.2500000
42
0.2500000
43
0.2500000
50
0.0000000
0
INSERT
8
Top
2
UNIT_DISC
10
165.0000000
20
148.0000000
41
0.2500000
42
0.2500000
43
0.2500000
50
0.0000000
0
POLYLINE
8
Top
6
CONTINUOUS
66
1
70
0
40
0.2500000
41
0.2500000
0
VERTEX
8
Top
10
165.0000000
20
150.0000000
42
0.0000000
0
VERTEX
8
Top
10
165.0000000
20
148.0000000
42
0.0000000
0
SEQEND
0
INSERT
8
Top
2
UNIT_DISC
10
166.0000000
20
150.0000000
41
0.2500000
42
0.2500000
43
0.2500000
50
0.0000000
0
INSERT
8
Top
2
UNIT_DISC
10
166.0000000
20
148.0000000
41
0.2500000
42
0.2500000
43
0.2500000
50
0.0000000
0
POLYLINE
8
Top
6
CONTINUOUS
66
1
70
0
40
0.2500000
41
0.2500000
0
VERTEX
8
Top
10
166.0000000
20
150.0000000
42
0.0000000
0
VERTEX
8
Top
10
166.0000000
20
148.0000000
42
0.0000000
0
SEQEND
0
INSERT
8
Top
2
UNIT_DISC
10
167.0000000
20
150.0000000
41
0.2500000
42
0.2500000
43
0.2500000
50
0.0000000
0
INSERT
8
Top
2
UNIT_DISC
10
167.0000000
20
148.0000000
41
0.2500000
42
0.2500000
43
0.2500000
50
0.0000000
0
POLYLINE
8
Top
6
CONTINUOUS
66
1
70
0
40
0.2500000
41
0.2500000
0
VERTEX
8
Top
10
167.0000000
20
150.0000000
42
0.0000000
0
VERTEX
8
Top
10
167.0000000
20
148.0000000
42
0.0000000
0
SEQEND
0
INSERT
8
Top
2
UNIT_DISC
10
162.0000000
20
150.0000000
41
0.2500000
42
0.2500000
43
0.2500000
50
0.0000000
0
INSERT
8
Top
2
UNIT_DISC
10
162.0000000
20
148.0000000
41
0.2500000
42
0.2500000
43
0.2500000
50
0.0000000
0
POLYLINE
8
Top
6
CONTINUOUS
66
1
70
0
40
0.2500000
41
0.2500000
0
VERTEX
8
Top
10
162.0000000
20
150.0000000
42
0.0000000
0
VERTEX
8
Top
10
162.0000000
20
148.0000000
42
0.0000000
0
SEQEND
0
INSERT
8
Top
2
UNIT_DISC
10
165.0000000
20
148.0000000
41
0.2500000
42
0.2500000
43
0.2500000
50
0.0000000
0
INSERT
8
Top
2
UNIT_DISC
10
165.0000000
20
147.0000000
41
0.2500000
42
0.2500000
43
0.2500000
50
0.0000000
0
POLYLINE
8
Top
6
CONTINUOUS
66
1
70
0
40
0.2500000
41
0.2500000
0
VERTEX
8
Top
10
165.0000000
20
148.0000000
42
0.0000000
0
VERTEX
8
Top
10
165.0000000
20
147.0000000
42
0.0000000
0
SEQEND
0
INSERT
8
Top
2
UNIT_DISC
10
168.7800000
20
100.0000000
41
0.5000000
42
0.5000000
43
0.5000000
50
0.0000000
0
INSERT
8
Top
2
UNIT_DISC
10
168.7800000
20
102.5000000
41
0.5000000
42
0.5000000
43
0.5000000
50
0.0000000
0
POLYLINE
8
Top
6
CONTINUOUS
66
1
70
0
40
0.5000000
41
0.5000000
0
VERTEX
8
Top
10
168.7800000
20
100.0000000
42
0.0000000
0
VERTEX
8
Top
10
168.7800000
20
102.5000000
42
0.0000000
0
SEQEND
0
INSERT
8
Top
2
UNIT_DISC
10
171.3200000
20
100.0000000
41
0.5000000
42
0.5000000
43
0.5000000
50
0.0000000
0
INSERT
8
Top
2
UNIT_DISC
10
171.3200000
20
102.5000000
41
0.5000000
42
0.5000000
43
0.5000000
50
0.0000000
0
POLYLINE
8
Top
6
CONTINUOUS
66
1
70
0
40
0.5000000
41
0.5000000
0
VERTEX
8
Top
10
171.3200000
20
100.0000000
42
0.0000000
0
VERTEX
8
Top
10
171.3200000
20
102.5000000
42
0.0000000
0
SEQEND
0
INSERT
8
Top
2
UNIT_DISC
10
173.8600000
20
100.0000000
41
0.5000000
42
0.5000000
43
0.5000000
50
0.0000000
0
INSERT
8
Top
2
UNIT_DISC
10
173.8600000
20
102.5000000
41
0.5000000
42
0.5000000
43
0.5000000
50
0.0000000
0
POLYLINE
8
Top
6
CONTINUOUS
66
1
70
0
40
0.5000000
41
0.5000000
0
VERTEX
8
Top
10
173.8600000
20
100.0000000
42
0.0000000
0
VERTEX
8
Top
10
173.8600000
20
102.5000000
42
0.0000000
0
SEQEND
0
INSERT
8
Top
2
UNIT_DISC
10
169.0000000
20
150.0000000
41
0.2500000
42
0.2500000
43
0.2500000
50
0.0000000
0
INSERT
8
Top
2
UNIT_DISC
10
169.0000000
20
148.0000000
41
0.2500000
42
0.2500000
43
0.2500000
50
0.0000000
0
POLYLINE
8
Top
6
CONTINUOUS
66
1
70
0
40
0.2500000
41
0.2500000
0
VERTEX
8
Top
10
169.0000000
20
150.0000000
42
0.0000000
0
VERTEX
8
Top
10
169.0000000
20
148.0000000
42
0.0000000
0
SEQEND
0
INSERT
8
Top
2
UNIT_DISC
10
168.0000000
20
150.0000000
41
0.2500000
42
0.2500000
43
0.2500000
50
0.0000000
0
INSERT
8
Top
2
UNIT_DISC
10
168.0000000
20
148.0000000
41
0.2500000
42
0.2500000
43
0.2500000
50
0.0000000
0
POLYLINE
8
Top
6
CONTINUOUS
66
1
70
0
40
0.2500000
41
0.2500000
0
VERTEX
8
Top
10
168.0000000
20
150.0000000
42
0.0000000
0
VERTEX
8
Top
10
168.0000000
20
148.0000000
42
0.0000000
0
SEQEND
0
INSERT
8
Top
2
UNIT_DISC
10
170.0000000
20
148.0000000
41
0.2500000
42
0.2500000
43
0.2500000
50
0.0000000
0
INSERT
8
Top
2
UNIT_DISC
10
170.0000000
20
146.0000000
41
0.2500000
42
0.2500000
43
0.2500000
50
0.0000000
0
POLYLINE
8
Top
6
CONTINUOUS
66
1
70
0
40
0.2500000
41
0.2500000
0
VERTEX
8
Top
10
170.0000000
20
148.0000000
42
0.0000000
0
VERTEX
8
Top
10
170.0000000
20
146.0000000
42
0.0000000
0
SEQEND
0
INSERT
8
Top
2
UNIT_DISC
10
170.0000000
20
150.0000000
41
0.2500000
42
0.2500000
43
0.2500000
50
0.0000000
0
INSERT
8
Top
2
UNIT_DISC
10
170.0000000
20
148.0000000
41
0.2500000
42
0.2500000
43
0.2500000
50
0.0000000
0
POLYLINE
8
Top
6
CONTINUOUS
66
1
70
0
40
0.2500000
41
0.2500000
0
VERTEX
8
Top
10
170.0000000
20
150.0000000
42
0.0000000
0
VERTEX
8
Top
10
170.0000000
20
148.0000000
42
0.0000000
0
SEQEND
0
INSERT
8
Top
2
UNIT_DISC
10
171.0000000
20
150.0000000
41
0.2500000
42
0.2500000
43
0.2500000
50
0.0000000
0
INSERT
8
Top
2
UNIT_DISC
10
171.0000000
20
148.0000000
41
0.2500000
42
0.2500000
43
0.2500000
50
0.0000000
0
POLYLINE
8
Top
6
CONTINUOUS
66
1
70
0
40
0.2500000
41
0.2500000
0
VERTEX
8
Top
10
171.0000000
20
150.0000000
42
0.0000000
0
VERTEX
8
Top
10
171.0000000
20
148.0000000
42
0.0000000
0
SEQEND
0
INSERT
8
Top
2
UNIT_DISC
10
172.0000000
20
150.0000000
41
0.2500000
42
0.2500000
43
0.2500000
50
0.0000000
0
INSERT
8
Top
2
UNIT_DISC
10
172.0000000
20
148.0000000
41
0.2500000
42
0.2500000
43
0.2500000
50
0.0000000
0
POLYLINE
8
Top
6
CONTINUOUS
66
1
70
0
40
0.2500000
41
0.2500000
0
VERTEX
8
Top
10
172.0000000
20
150.0000000
42
0.0000000
0
VERTEX
8
Top
10
172.0000000
20
148.0000000
42
0.0000000
0
SEQEND
0
INSERT
8
Top
2
UNIT_DISC
10
173.0000000
20
150.0000000
41
0.2500000
42
0.2500000
43
0.2500000
50
0.0000000
0
INSERT
8
Top
2
UNIT_DISC
10
173.0000000
20
148.0000000
41
0.2500000
42
0.2500000
43
0.2500000
50
0.0000000
0
POLYLINE
8
Top
6
CONTINUOUS
66
1
70
0
40
0.2500000
41
0.2500000
0
VERTEX
8
Top
10
173.0000000
20
150.0000000
42
0.0000000
0
VERTEX
8
Top
10
173.0000000
20
148.0000000
42
0.0000000
0
SEQEND
0
INSERT
8
Top
2
UNIT_DISC
10
174.0000000
20
150.0000000
41
0.2500000
42
0.2500000
43
0.2500000
50
0.0000000
0
INSERT
8
Top
2
UNIT_DISC
10
174.0000000
20
148.0000000
41
0.2500000
42
0.2500000
43
0.2500000
50
0.0000000
0
POLYLINE
8
Top
6
CONTINUOUS
66
1
70
0
40
0.2500000
41
0.2500000
0
VERTEX
8
Top
10
174.0000000
20
150.0000000
42
0.0000000
0
VERTEX
8
Top
10
174.0000000
20
148.0000000
42
0.0000000
0
SEQEND
0
INSERT
8
Top
2
UNIT_DISC
10
175.0000000
20
150.0000000
41
0.2500000
42
0.2500000
43
0.2500000
50
0.0000000
0
INSERT
8
Top
2
UNIT_DISC
10
175.0000000
20
148.0000000
41
0.2500000
42
0.2500000
43
0.2500000
50
0.0000000
0
POLYLINE
8
Top
6
CONTINUOUS
66
1
70
0
40
0.2500000
41
0.2500000
0
VERTEX
8
Top
10
175.0000000
20
150.0000000
42
0.0000000
0
VERTEX
8
Top
10
175.0000000
20
148.0000000
42
0.0000000
0
SEQEND
0
INSERT
8
Top
2
UNIT_DISC
10
175.0000000
20
148.0000000
41
0.2500000
42
0.2500000
43
0.2500000
50
0.0000000
0
INSERT
8
Top
2
UNIT_DISC
10
175.0000000
20
147.0000000
41
0.2500000
42
0.2500000
43
0.2500000
50
0.0000000
0
POLYLINE
8
Top
6
CONTINUOUS
66
1
70
0
40
0.2500000
41
0.2500000
0
VERTEX
8
Top
10
175.0000000
20
148.0000000
42
0.0000000
0
VERTEX
8
Top
10
175.0000000
20
147.0000000
42
0.0000000
0
SEQEND
0
INSERT
8
Top
2
UNIT_DISC
10
176.2000000
20
100.0000000
41
0.5000000
42
0.5000000
43
0.5000000
50
0.0000000
0
INSERT
8
Top
2
UNIT_DISC
10
176.2000000
20
105.0000000
41
0.5000000
42
0.5000000
43
0.5000000
50
0.0000000
0
POLYLINE
8
Top
6
CONTINUOUS
66
1
70
0
40
0.5000000
41
0.5000000
0
VERTEX
8
Top
10
176.2000000
20
100.0000000
42
0.0000000
0
VERTEX
8
Top
10
176.2000000
20
105.0000000
42
0.0000000
0
SEQEND
0
INSERT
8
Top
2
UNIT_DISC
10
178.5400000
20
100.0000000
41
0.5000000
42
0.5000000
43
0.5000000
50
0.0000000
0
INSERT
8
Top
2
UNIT_DISC
10
178.5400000
20
102.5000000
41
0.5000000
42
0.5000000
43
0.5000000
50
0.0000000
0
POLYLINE
8
Top
6
CONTINUOUS
66
1
70
0
40
0.5000000
41
0.5000000
0
VERTEX
8
Top
10
178.5400000
20
100.0000000
42
0.0000000
0
VERTEX
8
Top
10
178.5400000
20
102.5000000
42
0.0000000
0
SEQEND
0
INSERT
8
Top
2
UNIT_DISC
10
181.0800000
20
100.0000000
41
0.5000000
42
0.5000000
43
0.5000000
50
0.0000000
0
INSERT
8
Top
2
UNIT_DISC
10
181.0800000
20
102.5000000
41
0.5000000
42
0.5000000
43
0.5000000
50
0.0000000
0
POLYLINE
8
Top
6
CONTINUOUS
66
1
70
0
40
0.5000000
41
0.5000000
0
VERTEX
8
Top
10
181.0800000
20
100.0000000
42
0.0000000
0
VERTEX
8
Top
10
181.0800000
20
102.5000000
42
0.0000000
0
SEQEND
0
INSERT
8
Top
2
UNIT_DISC
10
176.0000000
20
150.0000000
41
0.2500000
42
0.2500000
43
0.2500000
50
0.0000000
0
INSERT
8
Top
2
UNIT_DISC
10
176.0000000
20
148.0000000
41
0.2500000
42
0.2500000
43
0.2500000
50
0.0000000
0
POLYLINE
8
Top
6
CONTINUOUS
66
1
70
0
40
0.2500000
41
0.2500000
0
VERTEX
8
Top
10
176.0000000
20
150.0000000
42
0.0000000
0
VERTEX
8
Top
10
176.0000000
20
148.0000000
42
0.0000000
0
SEQEND
0
INSERT
8
Top
2
UNIT_DISC
10
177.0000000
20
150.0000000
41
0.2500000
42
0.2500000
43
0.2500000
50
0.0000000
0
INSERT
8
Top
2
UNIT_DISC
10
177.0000000
20
148.0000000
41
0.2500000
42
0.2500000
43
0.2500000
50
0.0000000
0
POLYLINE
8
Top
6
CONTINUOUS
66
1
70
0
40
0.2500000
41
0.2500000
0
VERTEX
8
Top
10
177.0000000
20
150.0000000
42
0.0000000
0
VERTEX
8
Top
10
177.0000000
20
148.0000000
42
0.0000000
0
SEQEND
0
INSERT
8
Top
2
UNIT_DISC
10
180.0000000
20
148.0000000
41
0.2500000
42
0.2500000
43
0.2500000
50
0.0000000
0
INSERT
8
Top
2
UNIT_DISC
10
180.0000000
20
146.0000000
41
0.2500000
42
0.2500000
43
0.2500000
50
0.0000000
0
POLYLINE
8
Top
6
CONTINUOUS
66
1
70
0
40
0.2500000
41
0.2500000
0
VERTEX
8
Top
10
180.0000000
20
148.0000000
42
0.0000000
0
VERTEX
8
Top
10
180.0000000
20
146.0000000
42
0.0000000
0
SEQEND
0
INSERT
8
Top
2
UNIT_DISC
10
180.0000000
20
150.0000000
41
0.2500000
42
0.2500000
43
0.2500000
50
0.0000000
0
INSERT
8
Top
2
UNIT_DISC
10
180.0000000
20
148.0000000
41
0.2500000
42
0.2500000
43
0.2500000
50
0.0000000
0
POLYLINE
8
Top
6
CONTINUOUS
66
1
70
0
40
0.2500000
41
0.2500000
0
VERTEX
8
Top
10
180.0000000
20
150.0000000
42
0.0000000
0
VERTEX
8
Top
10
180.0000000
20
148.0000000
42
0.0000000
0
SEQEND
0
INSERT
8
Top
2
UNIT_DISC
10
179.0000000
20
150.0000000
41
0.2500000
42
0.2500000
43
0.2500000
50
0.0000000
0
INSERT
8
Top
2
UNIT_DISC
10
179.0000000
20
148.0000000
41
0.2500000
42
0.2500000
43
0.2500000
50
0.0000000
0
POLYLINE
8
Top
6
CONTINUOUS
66
1
70
0
40
0.2500000
41
0.2500000
0
VERTEX
8
Top
10
179.0000000
20
150.0000000
42
0.0000000
0
VERTEX
8
Top
10
179.0000000
20
148.0000000
42
0.0000000
0
SEQEND
0
INSERT
8
Top
2
UNIT_DISC
10
178.0000000
20
150.0000000
41
0.2500000
42
0.2500000
43
0.2500000
50
0.0000000
0
INSERT
8
Top
2
UNIT_DISC
10
178.0000000
20
148.0000000
41
0.2500000
42
0.2500000
43
0.2500000
50
0.0000000
0
POLYLINE
8
Top
6
CONTINUOUS
66
1
70
0
40
0.2500000
41
0.2500000
0
VERTEX
8
Top
10
178.0000000
20
150.0000000
42
0.0000000
0
VERTEX
8
Top
10
178.0000000
20
148.0000000
42
0.0000000
0
SEQEND
0
INSERT
8
Top
2
UNIT_DISC
10
181.0000000
20
150.0000000
41
0.2500000
42
0.2500000
43
0.2500000
50
0.0000000
0
INSERT
8
Top
2
UNIT_DISC
10
181.0000000
20
148.0000000
41
0.2500000
42
0.2500000
43
0.2500000
50
0.0000000
0
POLYLINE
8
Top
6
CONTINUOUS
66
1
70
0
40
0.2500000
41
0.2500000
0
VERTEX
8
Top
10
181.0000000
20
150.0000000
42
0.0000000
0
VERTEX
8
Top
10
181.0000000
20
148.0000000
42
0.0000000
0
SEQEND
0
INSERT
8
Top
2
UNIT_DISC
10
182.0000000
20
150.0000000
41
0.2500000
42
0.2500000
43
0.2500000
50
0.0000000
0
INSERT
8
Top
2
UNIT_DISC
10
182.0000000
20
148.0000000
41
0.2500000
42
0.2500000
43
0.2500000
50
0.0000000
0
POLYLINE
8
Top
6
CONTINUOUS
66
1
70
0
40
0.2500000
41
0.2500000
0
VERTEX
8
Top
10
182.0000000
20
150.0000000
42
0.0000000
0
VERTEX
8
Top
10
182.0000000
20
148.0000000
42
0.0000000
0
SEQEND
0
INSERT
8
Top
2
UNIT_DISC
10
183.6200000
20
100.0000000
41
0.5000000
42
0.5000000
43
0.5000000
50
0.0000000
0
INSERT
8
Top
2
UNIT_DISC
10
183.6200000
20
102.5000000
41
0.5000000
42
0.5000000
43
0.5000000
50
0.0000000
0
POLYLINE
8
Top
6
CONTINUOUS
66
1
70
0
40
0.5000000
41
0.5000000
0
VERTEX
8
Top
10
183.6200000
20
100.0000000
42
0.0000000
0
VERTEX
8
Top
10
183.6200000
20
102.5000000
42
0.0000000
0
SEQEND
0
INSERT
8
Top
2
UNIT_DISC
10
188.7000000
20
100.0000000
41
0.5000000
42
0.5000000
43
0.5000000
50
0.0000000
0
INSERT
8
Top
2
UNIT_DISC
10
188.7000000
20
104.0000000
41
0.5000000
42
0.5000000
43
0.5000000
50
0.0000000
0
POLYLINE
8
Top
6
CONTINUOUS
66
1
70
0
40
0.5000000
41
0.5000000
0
VERTEX
8
Top
10
188.7000000
20
100.0000000
42
0.0000000
0
VERTEX
8
Top
10
188.7000000
20
104.0000000
42
0.0000000
0
SEQEND
0
INSERT
8
Top
2
UNIT_DISC
10
186.1600000
20
100.0000000
41
0.5000000
42
0.5000000
43
0.5000000
50
0.0000000
0
INSERT
8
Top
2
UNIT_DISC
10
186.1600000
20
102.5000000
41
0.5000000
42
0.5000000
43
0.5000000
50
0.0000000
0
POLYLINE
8
Top
6
CONTINUOUS
66
1
70
0
40
0.5000000
41
0.5000000
0
VERTEX
8
Top
10
186.1600000
20
100.0000000
42
0.0000000
0
VERTEX
8
Top
10
186.1600000
20
102.5000000
42
0.0000000
0
SEQEND
0
TEXT
8
Top
10
184.0000000
20
107.0000000
40
2.0000000
1
inch
50
0.0
7
STANDARD
71
0
72
0
0
INSERT
8
Top
2
UNIT_DISC
10
184.0000000
20
150.0000000
41
0.2500000
42
0.2500000
43
0.2500000
50
0.0000000
0
INSERT
8
Top
2
UNIT_DISC
10
184.0000000
20
148.0000000
41
0.2500000
42
0.2500000
43
0.2500000
50
0.0000000
0
POLYLINE
8
Top
6
CONTINUOUS
66
1
70
0
40
0.2500000
41
0.2500000
0
VERTEX
8
Top
10
184.0000000
20
150.0000000
42
0.0000000
0
VERTEX
8
Top
10
184.0000000
20
148.0000000
42
0.0000000
0
SEQEND
0
INSERT
8
Top
2
UNIT_DISC
10
185.0000000
20
150.0000000
41
0.2500000
42
0.2500000
43
0.2500000
50
0.0000000
0
INSERT
8
Top
2
UNIT_DISC
10
185.0000000
20
148.0000000
41
0.2500000
42
0.2500000
43
0.2500000
50
0.0000000
0
POLYLINE
8
Top
6
CONTINUOUS
66
1
70
0
40
0.2500000
41
0.2500000
0
VERTEX
8
Top
10
185.0000000
20
150.0000000
42
0.0000000
0
VERTEX
8
Top
10
185.0000000
20
148.0000000
42
0.0000000
0
SEQEND
0
INSERT
8
Top
2
UNIT_DISC
10
186.0000000
20
150.0000000
41
0.2500000
42
0.2500000
43
0.2500000
50
0.0000000
0
INSERT
8
Top
2
UNIT_DISC
10
186.0000000
20
148.0000000
41
0.2500000
42
0.2500000
43
0.2500000
50
0.0000000
0
POLYLINE
8
Top
6
CONTINUOUS
66
1
70
0
40
0.2500000
41
0.2500000
0
VERTEX
8
Top
10
186.0000000
20
150.0000000
42
0.0000000
0
VERTEX
8
Top
10
186.0000000
20
148.0000000
42
0.0000000
0
SEQEND
0
INSERT
8
Top
2
UNIT_DISC
10
189.0000000
20
150.0000000
41
0.2500000
42
0.2500000
43
0.2500000
50
0.0000000
0
INSERT
8
Top
2
UNIT_DISC
10
189.0000000
20
148.0000000
41
0.2500000
42
0.2500000
43
0.2500000
50
0.0000000
0
POLYLINE
8
Top
6
CONTINUOUS
66
1
70
0
40
0.2500000
41
0.2500000
0
VERTEX
8
Top
10
189.0000000
20
150.0000000
42
0.0000000
0
VERTEX
8
Top
10
189.0000000
20
148.0000000
42
0.0000000
0
SEQEND
0
INSERT
8
Top
2
UNIT_DISC
10
188.0000000
20
150.0000000
41
0.2500000
42
0.2500000
43
0.2500000
50
0.0000000
0
INSERT
8
Top
2
UNIT_DISC
10
188.0000000
20
148.0000000
41
0.2500000
42
0.2500000
43
0.2500000
50
0.0000000
0
POLYLINE
8
Top
6
CONTINUOUS
66
1
70
0
40
0.2500000
41
0.2500000
0
VERTEX
8
Top
10
188.0000000
20
150.0000000
42
0.0000000
0
VERTEX
8
Top
10
188.0000000
20
148.0000000
42
0.0000000
0
SEQEND
0
INSERT
8
Top
2
UNIT_DISC
10
187.0000000
20
150.0000000
41
0.2500000
42
0.2500000
43
0.2500000
50
0.0000000
0
INSERT
8
Top
2
UNIT_DISC
10
187.0000000
20
148.0000000
41
0.2500000
42
0.2500000
43
0.2500000
50
0.0000000
0
POLYLINE
8
Top
6
CONTINUOUS
66
1
70
0
40
0.2500000
41
0.2500000
0
VERTEX
8
Top
10
187.0000000
20
150.0000000
42
0.0000000
0
VERTEX
8
Top
10
187.0000000
20
148.0000000
42
0.0000000
0
SEQEND
0
INSERT
8
Top
2
UNIT_DISC
10
185.0000000
20
148.0000000
41
0.2500000
42
0.2500000
43
0.2500000
50
0.0000000
0
INSERT
8
Top
2
UNIT_DISC
10
185.0000000
20
147.0000000
41
0.2500000
42
0.2500000
43
0.2500000
50
0.0000000
0
POLYLINE
8
Top
6
CONTINUOUS
66
1
70
0
40
0.2500000
41
0.2500000
0
VERTEX
8
Top
10
185.0000000
20
148.0000000
42
0.0000000
0
VERTEX
8
Top
10
185.0000000
20
147.0000000
42
0.0000000
0
SEQEND
0
TEXT
8
Top
10
111.0000000
20
144.0000000
40
2.0000000
1
1
50
0.0
7
STANDARD
71
0
72
0
0
TEXT
8
Top
10
127.0000000
20
105.0000000
40
2.0000000
1
1
50
0.0
7
STANDARD
71
0
72
0
0
TEXT
8
Top
10
131.0000000
20
144.0000000
40
2.0000000
1
3
50
0.0
7
STANDARD
71
0
72
0
0
TEXT
8
Top
10
141.0000000
20
144.0000000
40
2.0000000
1
4
50
0.0
7
STANDARD
71
0
72
0
0
TEXT
8
Top
10
153.0000000
20
105.0000000
40
2.0000000
1
2
50
0.0
7
STANDARD
71
0
72
0
0
TEXT
8
Top
10
161.0000000
20
144.0000000
40
2.0000000
1
6
50
0.0
7
STANDARD
71
0
72
0
0
TEXT
8
Top
10
171.0000000
20
144.0000000
40
2.0000000
1
7
50
0.0
7
STANDARD
71
0
72
0
0
TEXT
8
Top
10
178.0000000
20
105.0000000
40
2.0000000
1
3
50
0.0
7
STANDARD
71
0
72
0
0
TEXT
8
Top
10
181.0000000
20
144.0000000
40
2.0000000
1
8
50
0.0
7
STANDARD
71
0
72
0
0
TEXT
8
Top
10
184.0000000
20
142.0000000
40
2.0000000
1
mm
50
0.0
7
STANDARD
71
0
72
0
0
INSERT
8
Top
2
UNIT_DISC
10
122.0000000
20
150.0000000
41
0.2500000
42
0.2500000
43
0.2500000
50
0.0000000
0
INSERT
8
Top
2
UNIT_DISC
10
122.0000000
20
148.0000000
41
0.2500000
42
0.2500000
43
0.2500000
50
0.0000000
0
POLYLINE
8
Top
6
CONTINUOUS
66
1
70
0
40
0.2500000
41
0.2500000
0
VERTEX
8
Top
10
122.0000000
20
150.0000000
42
0.0000000
0
VERTEX
8
Top
10
122.0000000
20
148.0000000
42
0.0000000
0
SEQEND
0
INSERT
8
Top
2
UNIT_DISC
10
160.0000000
20
148.0000000
41
0.2500000
42
0.2500000
43
0.2500000
50
0.0000000
0
INSERT
8
Top
2
UNIT_DISC
10
160.0000000
20
146.0000000
41
0.2500000
42
0.2500000
43
0.2500000
50
0.0000000
0
POLYLINE
8
Top
6
CONTINUOUS
66
1
70
0
40
0.2500000
41
0.2500000
0
VERTEX
8
Top
10
160.0000000
20
148.0000000
42
0.0000000
0
VERTEX
8
Top
10
160.0000000
20
146.0000000
42
0.0000000
0
SEQEND
0
INSERT
8
Top
2
UNIT_DISC
10
160.0000000
20
150.0000000
41
0.2500000
42
0.2500000
43
0.2500000
50
0.0000000
0
INSERT
8
Top
2
UNIT_DISC
10
160.0000000
20
148.0000000
41
0.2500000
42
0.2500000
43
0.2500000
50
0.0000000
0
POLYLINE
8
Top
6
CONTINUOUS
66
1
70
0
40
0.2500000
41
0.2500000
0
VERTEX
8
Top
10
160.0000000
20
150.0000000
42
0.0000000
0
VERTEX
8
Top
10
160.0000000
20
148.0000000
42
0.0000000
0
SEQEND
0
INSERT
8
Top
2
UNIT_DISC
10
183.0000000
20
150.0000000
41
0.2500000
42
0.2500000
43
0.2500000
50
0.0000000
0
INSERT
8
Top
2
UNIT_DISC
10
183.0000000
20
148.0000000
41
0.2500000
42
0.2500000
43
0.2500000
50
0.0000000
0
POLYLINE
8
Top
6
CONTINUOUS
66
1
70
0
40
0.2500000
41
0.2500000
0
VERTEX
8
Top
10
183.0000000
20
150.0000000
42
0.0000000
0
VERTEX
8
Top
10
183.0000000
20
148.0000000
42
0.0000000
0
SEQEND
0
TEXT
8
Top
10
121.0000000
20
144.0000000
40
2.0000000
1
2
50
0.0
7
STANDARD
71
0
72
0
0
TEXT
8
Top
10
151.0000000
20
144.0000000
40
2.0000000
1
5
50
0.0
7
STANDARD
71
0
72
0
0
TEXT
8
Top
10
147.7500000
20
118.0312500
40
2.8000000
1
+7 (920) 900-00-87
50
0.0
7
STANDARD
71
0
72
0
0
TEXT
8
Top
10
124.8437500
20
125.0312500
40
2.8000000
1
Electrical engineering
50
0.0
7
STANDARD
71
0
72
0
0
TEXT
8
Top
10
101.7109400
20
118.0312500
40
2.8000000
1
engineer-hw@yandex.ru
50
0.0
7
STANDARD
71
0
72
0
0
TEXT
8
Top
10
123.2812500
20
129.6875000
40
4.0000000
1
Rustam Iksanov
50
0.0
7
STANDARD
71
0
72
0
0
INSERT
8
Board
2
UNIT_DISC
10
100.0000000
20
100.0000000
41
0.1270000
42
0.1270000
43
0.1270000
50
0.0000000
0
INSERT
8
Board
2
UNIT_DISC
10
150.0000000
20
100.0000000
41
0.1270000
42
0.1270000
43
0.1270000
50
0.0000000
0
POLYLINE
8
Board
6
CONTINUOUS
66
1
70
0
40
0.1270000
41
0.1270000
0
VERTEX
8
Board
10
100.0000000
20
100.0000000
42
0.0000000
0
VERTEX
8
Board
10
150.0000000
20
100.0000000
42
0.0000000
0
SEQEND
0
INSERT
8
Board
2
UNIT_DISC
10
150.0000000
20
100.0000000
41
0.1270000
42
0.1270000
43
0.1270000
50
0.0000000
0
INSERT
8
Board
2
UNIT_DISC
10
190.0000000
20
100.0000000
41
0.1270000
42
0.1270000
43
0.1270000
50
0.0000000
0
POLYLINE
8
Board
6
CONTINUOUS
66
1
70
0
40
0.1270000
41
0.1270000
0
VERTEX
8
Board
10
150.0000000
20
100.0000000
42
0.0000000
0
VERTEX
8
Board
10
190.0000000
20
100.0000000
42
0.0000000
0
SEQEND
0
INSERT
8
Board
2
UNIT_DISC
10
190.0000000
20
100.0000000
41
0.1270000
42
0.1270000
43
0.1270000
50
0.0000000
0
INSERT
8
Board
2
UNIT_DISC
10
190.0000000
20
150.0000000
41
0.1270000
42
0.1270000
43
0.1270000
50
0.0000000
0
POLYLINE
8
Board
6
CONTINUOUS
66
1
70
0
40
0.1270000
41
0.1270000
0
VERTEX
8
Board
10
190.0000000
20
100.0000000
42
0.0000000
0
VERTEX
8
Board
10
190.0000000
20
150.0000000
42
0.0000000
0
SEQEND
0
INSERT
8
Board
2
UNIT_DISC
10
190.0000000
20
150.0000000
41
0.1270000
42
0.1270000
43
0.1270000
50
0.0000000
0
INSERT
8
Board
2
UNIT_DISC
10
100.0000000
20
150.0000000
41
0.1270000
42
0.1270000
43
0.1270000
50
0.0000000
0
POLYLINE
8
Board
6
CONTINUOUS
66
1
70
0
40
0.1270000
41
0.1270000
0
VERTEX
8
Board
10
190.0000000
20
150.0000000
42
0.0000000
0
VERTEX
8
Board
10
100.0000000
20
150.0000000
42
0.0000000
0
SEQEND
0
INSERT
8
Board
2
UNIT_DISC
10
100.0000000
20
150.0000000
41
0.1270000
42
0.1270000
43
0.1270000
50
0.0000000
0
INSERT
8
Board
2
UNIT_DISC
10
100.0000000
20
147.5000000
41
0.1270000
42
0.1270000
43
0.1270000
50
0.0000000
0
POLYLINE
8
Board
6
CONTINUOUS
66
1
70
0
40
0.1270000
41
0.1270000
0
VERTEX
8
Board
10
100.0000000
20
150.0000000
42
0.0000000
0
VERTEX
8
Board
10
100.0000000
20
147.5000000
42
0.0000000
0
SEQEND
0
INSERT
8
Board
2
UNIT_DISC
10
100.0000000
20
147.5000000
41
0.1270000
42
0.1270000
43
0.1270000
50
0.0000000
0
INSERT
8
Board
2
UNIT_DISC
10
100.0000000
20
100.0000000
41
0.1270000
42
0.1270000
43
0.1270000
50
0.0000000
0
POLYLINE
8
Board
6
CONTINUOUS
66
1
70
0
40
0.1270000
41
0.1270000
0
VERTEX
8
Board
10
100.0000000
20
147.5000000
42
0.0000000
0
VERTEX
8
Board
10
100.0000000
20
100.0000000
42
0.0000000
0
SEQEND
0
ENDSEC
0
EOF
